<svg height="472.481" viewBox="0 0 552.073 354.361" width="736.098" xmlns="http://www.w3.org/2000/svg" xmlns:xlink="http://www.w3.org/1999/xlink"><defs><style>*{stroke-linecap:butt;stroke-linejoin:round}</style></defs><g id="figure_1"><path d="M0 354.36h552.073V0H0z" style="fill:none" id="patch_1"/><g id="axes_1"><path d="M91.839 309.062h357.12V42.95H91.839z" style="fill:none" id="patch_2"/><g id="matplotlib.axis_1"><g id="xtick_1"><g id="line2d_1"><defs><path d="M0 0v3.5" id="mc6fd00b377" style="stroke:#969696;stroke-width:.4"/></defs><use style="fill:#969696;stroke:#969696;stroke-width:.4" x="91.839" xlink:href="#mc6fd00b377" y="309.062"/></g><g style="fill:#969696" transform="matrix(.14 0 0 -.14 79.519 326.7)" id="text_1"><defs><path d="M794 531h1031v3560L703 3866v575l1116 225h631V531h1031V0H794v531z" id="DejaVuSans-31" transform="scale(.01563)"/><path d="M2034 4250q-487 0-733-480-245-479-245-1442 0-959 245-1439 246-480 733-480 491 0 736 480 246 480 246 1439 0 963-246 1442-245 480-736 480zm0 500q785 0 1199-621 414-620 414-1801 0-1178-414-1799Q2819-91 2034-91q-784 0-1198 620-414 621-414 1799 0 1181 414 1801 414 621 1198 621z" id="DejaVuSans-30" transform="scale(.01563)"/></defs><use transform="translate(0 .766)" xlink:href="#DejaVuSans-31"/><use transform="translate(63.623 .766)" xlink:href="#DejaVuSans-30"/><use transform="matrix(.7 0 0 .7 128.203 39.047)" xlink:href="#DejaVuSans-30"/></g></g><g id="xtick_2"><use style="fill:#969696;stroke:#969696;stroke-width:.4" x="190.699" xlink:href="#mc6fd00b377" y="309.062" id="line2d_2"/><g style="fill:#969696" transform="matrix(.14 0 0 -.14 178.38 326.7)" id="text_2"><defs><path d="M1228 531h2203V0H469v531q359 372 979 998 621 627 780 809 303 340 423 576 121 236 121 464 0 372-261 606-261 235-680 235-297 0-627-103-329-103-704-313v638q381 153 712 231 332 78 607 78 725 0 1156-363 431-362 431-968 0-288-108-546-107-257-392-607-78-91-497-524-418-433-1181-1211z" id="DejaVuSans-32" transform="scale(.01563)"/></defs><use transform="translate(0 .766)" xlink:href="#DejaVuSans-31"/><use transform="translate(63.623 .766)" xlink:href="#DejaVuSans-30"/><use transform="matrix(.7 0 0 .7 128.203 39.047)" xlink:href="#DejaVuSans-32"/></g></g><g id="xtick_3"><use style="fill:#969696;stroke:#969696;stroke-width:.4" x="289.56" xlink:href="#mc6fd00b377" y="309.062" id="line2d_3"/><g style="fill:#969696" transform="matrix(.14 0 0 -.14 277.24 326.7)" id="text_3"><defs><path d="M2419 4116 825 1625h1594v2491zm-166 550h794V1625h666v-525h-666V0h-628v1100H313v609l1940 2957z" id="DejaVuSans-34" transform="scale(.01563)"/></defs><use transform="translate(0 .684)" xlink:href="#DejaVuSans-31"/><use transform="translate(63.623 .684)" xlink:href="#DejaVuSans-30"/><use transform="matrix(.7 0 0 .7 128.203 38.966)" xlink:href="#DejaVuSans-34"/></g></g><g id="xtick_4"><use style="fill:#969696;stroke:#969696;stroke-width:.4" x="388.42" xlink:href="#mc6fd00b377" y="309.062" id="line2d_4"/><g style="fill:#969696" transform="matrix(.14 0 0 -.14 376.1 326.7)" id="text_4"><defs><path d="M2113 2584q-425 0-674-291-248-290-248-796 0-503 248-796 249-292 674-292t673 292q248 293 248 796 0 506-248 796-248 291-673 291zm1253 1979v-575q-238 112-480 171-242 60-480 60-625 0-955-422-329-422-376-1275 184 272 462 417 279 145 613 145 703 0 1111-427 408-426 408-1160 0-719-425-1154Q2819-91 2113-91q-810 0-1238 620-428 621-428 1799 0 1106 525 1764t1409 658q238 0 480-47t505-140z" id="DejaVuSans-36" transform="scale(.01563)"/></defs><use transform="translate(0 .766)" xlink:href="#DejaVuSans-31"/><use transform="translate(63.623 .766)" xlink:href="#DejaVuSans-30"/><use transform="matrix(.7 0 0 .7 128.203 39.047)" xlink:href="#DejaVuSans-36"/></g></g><g style="fill:#969696" transform="matrix(.14 0 0 -.14 249.959 344.25)" id="text_5"><defs><path d="M603 4863h575V0H603v4863z" id="DejaVuSans-6c" transform="scale(.01563)"/><path d="M3597 1894v-281H953q38-594 358-905t892-311q331 0 642 81t618 244V178Q3153 47 2828-22t-659-69q-838 0-1327 487-489 488-489 1320 0 859 464 1363 464 505 1252 505 706 0 1117-455 411-454 411-1235zm-575 169q-6 471-264 752-258 282-683 282-481 0-770-272t-333-766l2050 4z" id="DejaVuSans-65" transform="scale(.01563)"/><path d="M3513 2113V0h-575v2094q0 497-194 743-194 247-581 247-466 0-735-297-269-296-269-809V0H581v3500h578v-544q207 316 486 472 280 156 646 156 603 0 912-373 310-373 310-1098z" id="DejaVuSans-6e" transform="scale(.01563)"/><path d="M1984 4856q-418-718-622-1422-203-703-203-1425 0-721 205-1429t620-1424h-500Q1016-109 783 600T550 2009q0 697 231 1403 232 707 703 1444h500z" id="DejaVuSans-28" transform="scale(.01563)"/><path d="M2194 1759q-697 0-966-159t-269-544q0-306 202-486 202-179 548-179 479 0 768 339t289 901v128h-572zm1147 238V0h-575v531q-197-318-491-470T1556-91q-537 0-855 302-317 302-317 808 0 590 395 890 396 300 1180 300h807v57q0 397-261 614t-733 217q-300 0-585-72-284-72-546-216v532q315 122 612 182 297 61 578 61 760 0 1135-394 375-393 375-1193z" id="DejaVuSans-61" transform="scale(.01563)"/><path d="M513 4856h500q468-737 701-1444 233-706 233-1403 0-700-233-1409T1013-844H513q415 716 620 1424t205 1429q0 722-205 1425-205 704-620 1422z" id="DejaVuSans-29" transform="scale(.01563)"/></defs><use xlink:href="#DejaVuSans-6c"/><use x="27.783" xlink:href="#DejaVuSans-65"/><use x="89.307" xlink:href="#DejaVuSans-6e"/><use x="152.686" xlink:href="#DejaVuSans-28"/><use x="191.699" xlink:href="#DejaVuSans-61"/><use x="252.979" xlink:href="#DejaVuSans-29"/></g></g><g id="matplotlib.axis_2"><g id="ytick_1"><path clip-path="url(#p9b473a0255)" d="M91.839 277.2h357.12" style="fill:none;stroke:#969696;stroke-linecap:square;stroke-width:.3" id="line2d_5"/><g id="line2d_6"><defs><path d="M0 0h-3.5" id="m1aef11182b" style="stroke:#969696;stroke-width:.3"/></defs><use style="fill:#969696;stroke:#969696;stroke-width:.3" x="91.839" xlink:href="#m1aef11182b" y="277.2"/></g><g style="fill:#969696" transform="matrix(.14 0 0 -.14 51.939 282.519)" id="text_6"><defs><path d="M678 2272h4006v-531H678v531z" id="DejaVuSans-2212" transform="scale(.01563)"/><path d="M691 4666h2478v-532H1269V2991q137 47 274 70 138 23 276 23 781 0 1237-428 457-428 457-1159 0-753-469-1171Q2575-91 1722-91q-294 0-599 50Q819 9 494 109v635q281-153 581-228t634-75q541 0 856 284 316 284 316 772 0 487-316 771-315 285-856 285-253 0-505-56-251-56-513-175v2344z" id="DejaVuSans-35" transform="scale(.01563)"/></defs><use transform="translate(0 .684)" xlink:href="#DejaVuSans-31"/><use transform="translate(63.623 .684)" xlink:href="#DejaVuSans-30"/><use transform="matrix(.7 0 0 .7 128.203 38.966)" xlink:href="#DejaVuSans-2212"/><use transform="matrix(.7 0 0 .7 186.855 38.966)" xlink:href="#DejaVuSans-35"/></g></g><g id="ytick_2"><path clip-path="url(#p9b473a0255)" d="M91.839 231.232h357.12" style="fill:none;stroke:#969696;stroke-linecap:square;stroke-width:.3" id="line2d_7"/><use style="fill:#969696;stroke:#969696;stroke-width:.3" x="91.839" xlink:href="#m1aef11182b" y="231.232" id="line2d_8"/><g style="fill:#969696" transform="matrix(.14 0 0 -.14 51.939 236.55)" id="text_7"><use transform="translate(0 .684)" xlink:href="#DejaVuSans-31"/><use transform="translate(63.623 .684)" xlink:href="#DejaVuSans-30"/><use transform="matrix(.7 0 0 .7 128.203 38.966)" xlink:href="#DejaVuSans-2212"/><use transform="matrix(.7 0 0 .7 186.855 38.966)" xlink:href="#DejaVuSans-34"/></g></g><g id="ytick_3"><path clip-path="url(#p9b473a0255)" d="M91.839 185.264h357.12" style="fill:none;stroke:#969696;stroke-linecap:square;stroke-width:.3" id="line2d_9"/><use style="fill:#969696;stroke:#969696;stroke-width:.3" x="91.839" xlink:href="#m1aef11182b" y="185.264" id="line2d_10"/><g style="fill:#969696" transform="matrix(.14 0 0 -.14 51.939 190.583)" id="text_8"><defs><path d="M2597 2516q453-97 707-404 255-306 255-756 0-690-475-1069Q2609-91 1734-91q-293 0-604 58T488 141v609q262-153 574-231 313-78 654-78 593 0 904 234t311 681q0 413-289 645-289 233-804 233h-544v519h569q465 0 712 186t247 536q0 359-255 551-254 193-729 193-260 0-557-57-297-56-653-174v562q360 100 674 150t592 50q719 0 1137-327 419-326 419-882 0-388-222-655t-631-370z" id="DejaVuSans-33" transform="scale(.01563)"/></defs><use transform="translate(0 .766)" xlink:href="#DejaVuSans-31"/><use transform="translate(63.623 .766)" xlink:href="#DejaVuSans-30"/><use transform="matrix(.7 0 0 .7 128.203 39.047)" xlink:href="#DejaVuSans-2212"/><use transform="matrix(.7 0 0 .7 186.855 39.047)" xlink:href="#DejaVuSans-33"/></g></g><g id="ytick_4"><path clip-path="url(#p9b473a0255)" d="M91.839 139.296h357.12" style="fill:none;stroke:#969696;stroke-linecap:square;stroke-width:.3" id="line2d_11"/><use style="fill:#969696;stroke:#969696;stroke-width:.3" x="91.839" xlink:href="#m1aef11182b" y="139.296" id="line2d_12"/><g style="fill:#969696" transform="matrix(.14 0 0 -.14 51.939 144.615)" id="text_9"><use transform="translate(0 .766)" xlink:href="#DejaVuSans-31"/><use transform="translate(63.623 .766)" xlink:href="#DejaVuSans-30"/><use transform="matrix(.7 0 0 .7 128.203 39.047)" xlink:href="#DejaVuSans-2212"/><use transform="matrix(.7 0 0 .7 186.855 39.047)" xlink:href="#DejaVuSans-32"/></g></g><g id="ytick_5"><path clip-path="url(#p9b473a0255)" d="M91.839 93.328h357.12" style="fill:none;stroke:#969696;stroke-linecap:square;stroke-width:.3" id="line2d_13"/><use style="fill:#969696;stroke:#969696;stroke-width:.3" x="91.839" xlink:href="#m1aef11182b" y="93.328" id="line2d_14"/><g style="fill:#969696" transform="matrix(.14 0 0 -.14 51.939 98.647)" id="text_10"><use transform="translate(0 .684)" xlink:href="#DejaVuSans-31"/><use transform="translate(63.623 .684)" xlink:href="#DejaVuSans-30"/><use transform="matrix(.7 0 0 .7 128.203 38.966)" xlink:href="#DejaVuSans-2212"/><use transform="matrix(.7 0 0 .7 186.855 38.966)" xlink:href="#DejaVuSans-31"/></g></g><g id="ytick_6"><path clip-path="url(#p9b473a0255)" d="M91.839 47.36h357.12" style="fill:none;stroke:#969696;stroke-linecap:square;stroke-width:.3" id="line2d_15"/><use style="fill:#969696;stroke:#969696;stroke-width:.3" x="91.839" xlink:href="#m1aef11182b" y="47.361" id="line2d_16"/><g style="fill:#969696" transform="matrix(.14 0 0 -.14 60.199 52.68)" id="text_11"><use transform="translate(0 .766)" xlink:href="#DejaVuSans-31"/><use transform="translate(63.623 .766)" xlink:href="#DejaVuSans-30"/><use transform="matrix(.7 0 0 .7 128.203 39.047)" xlink:href="#DejaVuSans-30"/></g></g><g style="fill:#969696" transform="matrix(.14 0 0 -.14 7.2 17.838)" id="text_12"><defs><path d="M2841 2188q203-69 395-294t386-619L4263 0h-679l-596 1197q-232 469-449 622t-592 153h-688V0H628v4666h1425q800 0 1194-335 394-334 394-1009 0-441-205-732-205-290-595-402zM1259 4147V2491h794q456 0 689 211t233 620q0 409-233 617t-689 208h-794z" id="DejaVuSans-52" transform="scale(.01563)"/><path d="M544 1381v2119h575V1403q0-497 193-746 194-248 582-248 465 0 735 297 271 297 271 810v1984h575V0h-575v538q-209-319-486-474-276-155-642-155-603 0-916 375-312 375-312 1097zm1447 2203z" id="DejaVuSans-75" transform="scale(.01563)"/><path d="M1172 4494v-994h1184v-447H1172V1153q0-428 117-550t477-122h590V0h-590q-666 0-919 248-253 249-253 905v1900H172v447h422v994h578z" id="DejaVuSans-74" transform="scale(.01563)"/><path d="M603 3500h575V0H603v3500zm0 1363h575v-729H603v729z" id="DejaVuSans-69" transform="scale(.01563)"/><path d="M3328 2828q216 388 516 572t706 184q547 0 844-383 297-382 297-1088V0h-578v2094q0 503-179 746-178 244-543 244-447 0-707-297-259-296-259-809V0h-578v2094q0 506-178 748t-550 242q-441 0-701-298-259-298-259-808V0H581v3500h578v-544q197 322 472 475t653 153q382 0 649-194 267-193 395-562z" id="DejaVuSans-6d" transform="scale(.01563)"/><path d="M550 4863h1325v-447h-750V-397h750v-447H550v5707z" id="DejaVuSans-5b" transform="scale(.01563)"/><path d="M2834 3397v-544q-243 125-506 187-262 63-544 63-428 0-642-131t-214-394q0-200 153-314t616-217l197-44q612-131 870-370t258-667q0-488-386-773Q2250-91 1575-91q-281 0-586 55T347 128v594q319-166 628-249 309-82 613-82 406 0 624 139 219 139 219 392 0 234-158 359-157 125-692 241l-200 47q-534 112-772 345-237 233-237 639 0 494 350 762 350 269 994 269 318 0 599-47 282-46 519-140z" id="DejaVuSans-73" transform="scale(.01563)"/><path d="M1947 4863V-844H622v447h747v4813H622v447h1325z" id="DejaVuSans-5d" transform="scale(.01563)"/></defs><use xlink:href="#DejaVuSans-52"/><use x="64.982" xlink:href="#DejaVuSans-75"/><use x="128.361" xlink:href="#DejaVuSans-6e"/><use x="191.74" xlink:href="#DejaVuSans-74"/><use x="230.949" xlink:href="#DejaVuSans-69"/><use x="258.732" xlink:href="#DejaVuSans-6d"/><use x="356.145" xlink:href="#DejaVuSans-65"/><use x="417.668" xlink:href="#DejaVuSans-20"/><use x="449.455" xlink:href="#DejaVuSans-5b"/><use x="488.469" xlink:href="#DejaVuSans-73"/><use x="540.568" xlink:href="#DejaVuSans-5d"/></g></g><path clip-path="url(#p9b473a0255)" d="m91.839 270.272 14.88.163 14.88-.08 14.88.01 14.88.09 14.88-.187 14.88-.084 14.88-.372 14.88-.196 14.88-.236 14.88-.499 14.88-1.709 14.88-2.38 14.88-4.214 14.88-7.457 14.88-9.098 14.88-10.41 14.88-13.607 14.88-19.564 14.88-20.616 14.88-17.133 14.88-19.757 14.88-13.85 14.88-21.496 14.88-51.234" style="fill:none;stroke:#1f77b4;stroke-linecap:square;stroke-width:1.5" id="line2d_17"/><path clip-path="url(#p9b473a0255)" d="m91.839 294.897 14.88-.15 14.88.136 14.88-.01 14.88-.092 14.88.087 14.88-.88 14.88-.444 14.88-.483 14.88-.398 14.88-.865 14.88-1.86 14.88-3.537 14.88-5.424 14.88-8.2 14.88-11.831 14.88-13.009 14.88-11.329 14.88-13.309 14.88-15.352 14.88-29.443L404.319 147l14.88-14.91 14.88-68.019 14.88-19.224" style="fill:none;stroke:#ff7f0e;stroke-linecap:square;stroke-width:1.5" id="line2d_18"/><path clip-path="url(#p9b473a0255)" d="m91.839 298.567 14.88.07 14.88-.122 14.88-.312 14.88.271 14.88-.15 14.88-.126 14.88-.987 14.88-.163 14.88-.405 14.88-1.046 14.88-3.27 14.88-2.856 14.88-5.805 14.88-9.075 14.88-13.085 14.88-12.026 14.88-12.613 14.88-13.432 14.88-14.636 14.88-30.248 14.88-29.775 14.88-15.89 14.88-69.518 14.88-18.941" style="fill:none;stroke:#2ca02c;stroke-linecap:square;stroke-width:1.5" id="line2d_19"/><path clip-path="url(#p9b473a0255)" d="m91.839 302.168 14.88.19 14.88-.266 14.88.308 14.88-.343 14.88-.22 14.88-.441 14.88-1.027 14.88-.762 14.88-.97 14.88-2.721 14.88-4.516 14.88-6.691 14.88-9.711 14.88-12.71 14.88-13.046 14.88-13.197 14.88-13.94 14.88-20.684 14.88-21.126 14.88-17.641 14.88-21.421 14.88-15.183 14.88-61.41 14.88-19.794" style="fill:none;stroke:#d62728;stroke-linecap:square;stroke-width:1.5" id="line2d_20"/><path clip-path="url(#p9b473a0255)" d="m91.839 308.614 14.88.272 14.88.176 14.88-.215 14.88-.243 14.88.126 14.88-.704 14.88-1.408 14.88-.786 14.88-2.067 14.88-2.892 14.88-5.781 14.88-7.43 14.88-11.35 14.88-13.1 14.88-13.194 14.88-13.638 14.88-13.928 14.88-20.977 14.88-21.169 14.88-17.707 14.88-20.178 14.88-15.332 14.88-62.913 14.88-21.226" style="fill:none;stroke:#9467bd;stroke-linecap:square;stroke-width:1.5" id="line2d_21"/><g style="fill:#1f77b4" transform="matrix(.14 0 0 -.14 449.172 78.159)" id="text_13"><defs><path d="M3122 3366v-538q-244 135-489 202t-495 67q-560 0-870-355-309-354-309-995t309-996q310-354 870-354 250 0 495 67t489 202V134Q2881 22 2623-34q-257-57-548-57-791 0-1257 497-465 497-465 1341 0 856 470 1346 471 491 1290 491 265 0 518-55 253-54 491-163z" id="DejaVuSans-63" transform="scale(.01563)"/><path d="M3263-1063v-446H-63v446h3326z" id="DejaVuSans-5f" transform="scale(.01563)"/></defs><use xlink:href="#DejaVuSans-63"/><use x="54.98" xlink:href="#DejaVuSans-5f"/></g><g style="fill:#ff7f0e" transform="matrix(.14 0 0 -.14 449.172 64.548)" id="text_14"><defs><path d="M581 4863h578V1991l1716 1509h734L1753 1863 3688 0h-750L1159 1709V0H581v4863z" id="DejaVuSans-6b" transform="scale(.01563)"/></defs><use xlink:href="#DejaVuSans-73"/><use x="52.1" xlink:href="#DejaVuSans-74"/><use x="91.309" xlink:href="#DejaVuSans-61"/><use x="152.588" xlink:href="#DejaVuSans-63"/><use x="207.568" xlink:href="#DejaVuSans-6b"/></g><g style="fill:#2ca02c" transform="matrix(.14 0 0 -.14 449.172 36.548)" id="text_15"><defs><path d="M191 3500h609L1894 563l1094 2937h609L2284 0h-781L191 3500z" id="DejaVuSans-76" transform="scale(.01563)"/></defs><use xlink:href="#DejaVuSans-76"/><use x="59.18" xlink:href="#DejaVuSans-73"/><use x="111.279" xlink:href="#DejaVuSans-74"/><use x="150.488" xlink:href="#DejaVuSans-61"/><use x="211.768" xlink:href="#DejaVuSans-63"/><use x="266.748" xlink:href="#DejaVuSans-6b"/></g><g style="fill:#d62728" transform="matrix(.14 0 0 -.14 449.172 50.354)" id="text_16"><defs><path d="M1959 3097q-462 0-731-361t-269-989q0-628 267-989 268-361 733-361 460 0 728 362 269 363 269 988 0 622-269 986-268 364-728 364zm0 487q750 0 1178-488 429-487 429-1349 0-859-429-1349Q2709-91 1959-91q-753 0-1180 489-426 490-426 1349 0 862 426 1349 427 488 1180 488z" id="DejaVuSans-6f" transform="scale(.01563)"/></defs><use xlink:href="#DejaVuSans-63"/><use x="54.98" xlink:href="#DejaVuSans-6f"/><use x="116.162" xlink:href="#DejaVuSans-6c"/><use x="143.945" xlink:href="#DejaVuSans-75"/><use x="207.324" xlink:href="#DejaVuSans-6d"/><use x="304.736" xlink:href="#DejaVuSans-6e"/><use x="368.115" xlink:href="#DejaVuSans-5f"/><use x="418.115" xlink:href="#DejaVuSans-73"/><use x="470.215" xlink:href="#DejaVuSans-74"/><use x="509.424" xlink:href="#DejaVuSans-61"/><use x="570.703" xlink:href="#DejaVuSans-63"/><use x="625.684" xlink:href="#DejaVuSans-6b"/></g><g style="fill:#9467bd" transform="matrix(.14 0 0 -.14 449.172 22.548)" id="text_17"><use xlink:href="#DejaVuSans-63"/><use x="54.98" xlink:href="#DejaVuSans-6f"/><use x="116.162" xlink:href="#DejaVuSans-6e"/><use x="179.541" xlink:href="#DejaVuSans-63"/><use x="234.521" xlink:href="#DejaVuSans-61"/><use x="295.801" xlink:href="#DejaVuSans-74"/></g></g></g><defs><clipPath id="p9b473a0255"><path d="M91.839 42.95h357.12v266.112H91.839z"/></clipPath></defs></svg>