<svg height="476.892" viewBox="0 0 491.665 357.669" width="655.554" xmlns="http://www.w3.org/2000/svg" xmlns:xlink="http://www.w3.org/1999/xlink"><defs><style>*{stroke-linecap:butt;stroke-linejoin:round}</style></defs><g id="figure_1"><path d="M0 357.67h491.665V0H0z" fill="none" id="patch_1"/><g id="axes_1"><path d="M41.5 313.361h357.12V47.25H41.5z" fill="none" id="patch_2"/><g id="matplotlib.axis_1"><g id="xtick_1"><g id="line2d_1"><defs><path d="M0 0v3.5" id="mb8bcb075b5" stroke="#969696" stroke-width=".4"/></defs><use x="41.5" xlink:href="#mb8bcb075b5" y="313.361" fill="#969696" stroke="#969696" stroke-width=".4"/></g><g transform="matrix(.14 0 0 -.14 30.72 330.41)" fill="#969696" id="text_1"><defs><path d="M35.89 0h-9.374v49.906H10.109v6.985q8.594.28 12.782 2.75Q27.094 62.109 29 70.313h6.89z" id="HelveticaWorld-Regular-49"/><path d="M42.484 34.188q0 14.109-3.734 21.156-3.734 7.062-10.969 7.062-7.078 0-10.89-7.062-3.797-7.047-3.797-21.157 0-13.671 3.75-20.937Q20.609 6 27.78 6q7.235 0 10.969 7 3.734 7.016 3.734 21.188zm9.422 0q0-17.297-6.25-26.704-6.25-9.39-17.875-9.39-12.062 0-18.062 9.734-6 9.75-6 26.36 0 17.03 6.14 26.578 6.157 9.547 17.922 9.547 11.625 0 17.875-9.5t6.25-26.626z" id="HelveticaWorld-Regular-48"/></defs><use transform="translate(0 .173)" xlink:href="#HelveticaWorld-Regular-49"/><use transform="translate(55.615 .173)" xlink:href="#HelveticaWorld-Regular-48"/><use transform="matrix(.7 0 0 .7 112.146 36.781)" xlink:href="#HelveticaWorld-Regular-48"/></g></g><g id="xtick_2"><use x="140.361" xlink:href="#mb8bcb075b5" y="313.361" fill="#969696" stroke="#969696" stroke-width=".4" id="line2d_2"/><g transform="matrix(.14 0 0 -.14 129.58 330.41)" fill="#969696" id="text_2"><defs><path d="M4.39 45.125q0 12.39 6.391 18.781 6.406 6.407 17.938 6.407 9.656 0 15.812-5.86 6.157-5.86 6.157-15.14 0-7.22-3.547-12.188-3.532-4.953-10.422-8.703l-12.11-6.64Q13.922 15.921 12.5 8.296h38.188V0H2.593q.39 9.906 4.297 16.5 3.906 6.594 12.203 11.375l12.593 7.328q5.032 2.89 7.329 5.984 2.297 3.094 2.297 8.516 0 5.375-3.766 9.031-3.75 3.672-10.156 3.672-7.078 0-10.594-4.672-3.516-4.656-3.61-12.609z" id="HelveticaWorld-Regular-50"/></defs><use transform="translate(0 .173)" xlink:href="#HelveticaWorld-Regular-49"/><use transform="translate(55.615 .173)" xlink:href="#HelveticaWorld-Regular-48"/><use transform="matrix(.7 0 0 .7 112.146 36.781)" xlink:href="#HelveticaWorld-Regular-50"/></g></g><g id="xtick_3"><use x="239.221" xlink:href="#mb8bcb075b5" y="313.361" fill="#969696" stroke="#969696" stroke-width=".4" id="line2d_3"/><g transform="matrix(.14 0 0 -.14 228.441 330.41)" fill="#969696" id="text_3"><defs><path d="M10.594 24.703h22.61v31.89h-.188zM42 17.093V0h-8.797v17.094H2.484v8.593L34.72 70.314H42v-45.61h10.297v-7.61z" id="HelveticaWorld-Regular-52"/></defs><use transform="translate(0 .173)" xlink:href="#HelveticaWorld-Regular-49"/><use transform="translate(55.615 .173)" xlink:href="#HelveticaWorld-Regular-48"/><use transform="matrix(.7 0 0 .7 112.146 36.781)" xlink:href="#HelveticaWorld-Regular-52"/></g></g><g id="xtick_4"><use x="338.082" xlink:href="#mb8bcb075b5" y="313.361" fill="#969696" stroke="#969696" stroke-width=".4" id="line2d_4"/><g transform="matrix(.14 0 0 -.14 327.302 330.41)" fill="#969696" id="text_4"><defs><path d="M14.11 21.578q0-6.875 4.093-11.234Q22.313 6 28.906 6q6.297 0 10.032 4.438 3.734 4.453 3.734 11.687 0 6.297-3.688 10.547-3.687 4.25-10.468 4.25-6.594 0-10.5-4.156-3.907-4.157-3.907-11.188zM41.702 51.61q-.984 5.375-3.984 8.078-3 2.72-8.125 2.72-8.11 0-12.36-7.923-4.25-7.906-4.343-18.109l.203-.188q5.61 8.641 16.687 8.641 8.844 0 15.438-5.86 6.593-5.859 6.593-16.452 0-10.5-6.25-17.47-6.25-6.952-16.843-6.952-12.219 0-18.563 8.687-6.344 8.703-6.344 25.938 0 16.593 6.485 27.093 6.5 10.5 19.484 10.5 8.407 0 14.219-5.015 5.813-5 6.297-13.688z" id="HelveticaWorld-Regular-54"/></defs><use transform="translate(0 .173)" xlink:href="#HelveticaWorld-Regular-49"/><use transform="translate(55.615 .173)" xlink:href="#HelveticaWorld-Regular-48"/><use transform="matrix(.7 0 0 .7 112.146 36.781)" xlink:href="#HelveticaWorld-Regular-54"/></g></g><g transform="matrix(.14 0 0 -.14 202.27 347.57)" fill="#969696" id="text_5"><defs><path d="M15.375 0H6.594v71.781h8.781z" id="HelveticaWorld-Regular-108"/><path d="M42.484 30.328q-.687 8.485-4.5 12.031-3.797 3.547-10.109 3.547-6.39 0-10.328-4.5-3.922-4.484-4.172-11.078zm8.391-13.922q-1.453-8.11-7.953-13.422-5.719-4.5-15.047-4.593-10.984.093-17.438 7.203Q4 12.704 4 24.704q0 13.78 6.64 21.437 6.641 7.672 18.47 7.672 10.593 0 16.546-7.922 5.953-7.907 5.953-22.594H13.375q0-8.203 3.813-12.703Q21 6.109 28.608 6.109q5.375 0 9.235 3.235 3.86 3.25 4.25 7.062z" id="HelveticaWorld-Regular-101"/><path d="M49.219 0h-8.844v32.172q0 7.422-2.594 10.578-2.578 3.156-8.578 3.156-5.906 0-9.875-4.5-3.953-4.484-3.953-12.89V0H6.594v52.297h8.297v-7.375h.203q6.203 8.89 15.812 8.89 8.89 0 13.594-4.718 4.719-4.703 4.719-13.5z" id="HelveticaWorld-Regular-110"/><path d="M29.781 73.297q-8.875-15.875-11.218-25.844-2.344-9.953-2.344-21.969 0-11.859 3.187-22.125Q22.61-6.89 29.891-20.703h-5.86Q15.72-8.593 11.25 2.187 6.781 12.985 6.781 26.125q0 12.36 4.047 23.563 4.063 11.203 12.86 23.609z" id="HelveticaWorld-Regular-40"/><path d="M38.375 26.703q-.969-1.015-3.828-1.656-2.86-.625-10.672-1.656-5.766-.688-8.469-2.844-2.703-2.14-2.703-5.656 0-4.297 2.281-6.688 2.297-2.39 7.329-2.39 6.296 0 11.171 3.578 4.891 3.593 4.891 8.718zM6.203 36.375q.297 8.844 5.734 13.14 5.454 4.297 15.844 4.297 8.297 0 13.907-3.765 5.624-3.75 5.624-10.844V9.078Q47.313 6 50.094 6q1.125 0 2.89.39V0Q50.594-.984 48-.984q-4.5 0-6.703 1.921-2.188 1.938-2.281 6.047-7.516-8.5-18.891-8.5-7.422 0-11.922 4.204Q3.72 6.89 3.72 13.624q0 6.89 3.906 11.125Q11.531 29 19 29.89l15.516 1.891q4.203.64 4.203 6.203 0 4.11-3.047 6.297-3.047 2.203-9.25 2.203-5.516 0-8.485-2.437-2.953-2.438-3.53-7.672z" id="HelveticaWorld-Regular-97"/><path d="M3.516-20.703q8.796 15.922 11.14 25.86Q17 15.093 17 27.093q0 11.922-3.156 22.172T3.422 73.296h5.765q8.391-12.109 12.86-22.905 4.469-10.797 4.469-23.875 0-12.407-4.063-23.61-4.047-11.203-12.828-23.61z" id="HelveticaWorld-Regular-41"/></defs><use xlink:href="#HelveticaWorld-Regular-108"/><use x="22.021" xlink:href="#HelveticaWorld-Regular-101"/><use x="77.441" xlink:href="#HelveticaWorld-Regular-110"/><use x="132.617" xlink:href="#HelveticaWorld-Regular-40"/><use x="165.918" xlink:href="#HelveticaWorld-Regular-97"/><use x="220.85" xlink:href="#HelveticaWorld-Regular-41"/></g></g><g id="matplotlib.axis_2"><g id="ytick_1"><path clip-path="url(#paf0d474de2)" d="M41.5 277.732h357.12" fill="none" stroke="#969696" stroke-linecap="square" stroke-width=".3" id="line2d_5"/><g id="line2d_6"><defs><path d="M0 0h-3.5" id="mcea2063fe1" stroke="#969696" stroke-width=".3"/></defs><use x="41.5" xlink:href="#mcea2063fe1" y="277.732" fill="#969696" stroke="#969696" stroke-width=".3"/></g><g transform="matrix(.14 0 0 -.14 7.2 282.757)" fill="#969696" id="text_6"><defs><path d="M54.594 21.578H4v7.328h50.594z" id="HelveticaWorld-Regular-8722"/><path d="M14.703 40.922q5.813 4.39 13.625 4.39 9.469 0 16.281-6.296 6.813-6.297 6.813-16.22 0-10.78-6.578-17.796-6.563-7-18.422-7-10.313 0-16.266 5.047Q4.203 8.109 3.22 17.39h9.094q.671-5.672 4.437-8.672 3.766-3 10.453-3 6.485 0 10.64 4.484Q42 14.703 42 21.688q0 7.125-4.36 11.421-4.343 4.297-11.218 4.297-7.813 0-13.047-6.687l-7.563.39 5.266 37.594h36.438v-8.5H17.672z" id="HelveticaWorld-Regular-53"/></defs><use transform="translate(0 .3)" xlink:href="#HelveticaWorld-Regular-49"/><use transform="translate(55.615 .3)" xlink:href="#HelveticaWorld-Regular-48"/><use transform="matrix(.7 0 0 .7 112.146 36.908)" xlink:href="#HelveticaWorld-Regular-8722"/><use transform="matrix(.7 0 0 .7 153.161 36.908)" xlink:href="#HelveticaWorld-Regular-53"/></g></g><g id="ytick_2"><path clip-path="url(#paf0d474de2)" d="M41.5 228.129h357.12" fill="none" stroke="#969696" stroke-linecap="square" stroke-width=".3" id="line2d_7"/><use x="41.5" xlink:href="#mcea2063fe1" y="228.129" fill="#969696" stroke="#969696" stroke-width=".3" id="line2d_8"/><g transform="matrix(.14 0 0 -.14 7.2 233.154)" fill="#969696" id="text_7"><use transform="translate(0 .173)" xlink:href="#HelveticaWorld-Regular-49"/><use transform="translate(55.615 .173)" xlink:href="#HelveticaWorld-Regular-48"/><use transform="matrix(.7 0 0 .7 112.146 36.781)" xlink:href="#HelveticaWorld-Regular-8722"/><use transform="matrix(.7 0 0 .7 153.161 36.781)" xlink:href="#HelveticaWorld-Regular-52"/></g></g><g id="ytick_3"><path clip-path="url(#paf0d474de2)" d="M41.5 178.526h357.12" fill="none" stroke="#969696" stroke-linecap="square" stroke-width=".3" id="line2d_9"/><use x="41.5" xlink:href="#mcea2063fe1" y="178.526" fill="#969696" stroke="#969696" stroke-width=".3" id="line2d_10"/><g transform="matrix(.14 0 0 -.14 7.2 183.55)" fill="#969696" id="text_8"><defs><path d="M22.406 39.984q2.203-.187 4.594-.187 6.203 0 9.781 2.86 3.594 2.859 3.594 8.656 0 4.687-3.344 7.89-3.343 3.203-9.64 3.203-6.985 0-10.235-4.11-3.234-4.093-3.437-10.983h-8.64q0 10.984 5.765 16.984 5.765 6.016 16.937 6.016 9.922 0 15.828-5.11 5.907-5.094 5.907-13.39 0-10.704-9.032-14.5v-.204q11.72-4 11.72-16.406 0-9.906-6.595-16.265-6.593-6.344-18.703-6.344-9.906 0-16.312 5.203Q4.204 8.5 3.422 21.484H12.5q.203-8.109 4-11.797Q20.313 6 27.484 6q6.938 0 11.141 3.86 4.203 3.859 4.203 9.718 0 6.406-4.016 9.672-4 3.266-12.39 3.266-2 0-4.016-.094z" id="HelveticaWorld-Regular-51"/></defs><use transform="translate(0 .173)" xlink:href="#HelveticaWorld-Regular-49"/><use transform="translate(55.615 .173)" xlink:href="#HelveticaWorld-Regular-48"/><use transform="matrix(.7 0 0 .7 112.146 36.781)" xlink:href="#HelveticaWorld-Regular-8722"/><use transform="matrix(.7 0 0 .7 153.161 36.781)" xlink:href="#HelveticaWorld-Regular-51"/></g></g><g id="ytick_4"><path clip-path="url(#paf0d474de2)" d="M41.5 128.922h357.12" fill="none" stroke="#969696" stroke-linecap="square" stroke-width=".3" id="line2d_11"/><use x="41.5" xlink:href="#mcea2063fe1" y="128.922" fill="#969696" stroke="#969696" stroke-width=".3" id="line2d_12"/><g transform="matrix(.14 0 0 -.14 7.2 133.947)" fill="#969696" id="text_9"><use transform="translate(0 .173)" xlink:href="#HelveticaWorld-Regular-49"/><use transform="translate(55.615 .173)" xlink:href="#HelveticaWorld-Regular-48"/><use transform="matrix(.7 0 0 .7 112.146 36.781)" xlink:href="#HelveticaWorld-Regular-8722"/><use transform="matrix(.7 0 0 .7 153.161 36.781)" xlink:href="#HelveticaWorld-Regular-50"/></g></g><g id="ytick_5"><path clip-path="url(#paf0d474de2)" d="M41.5 79.32h357.12" fill="none" stroke="#969696" stroke-linecap="square" stroke-width=".3" id="line2d_13"/><use x="41.5" xlink:href="#mcea2063fe1" y="79.319" fill="#969696" stroke="#969696" stroke-width=".3" id="line2d_14"/><g transform="matrix(.14 0 0 -.14 7.2 84.344)" fill="#969696" id="text_10"><use transform="translate(0 .173)" xlink:href="#HelveticaWorld-Regular-49"/><use transform="translate(55.615 .173)" xlink:href="#HelveticaWorld-Regular-48"/><use transform="matrix(.7 0 0 .7 112.146 36.781)" xlink:href="#HelveticaWorld-Regular-8722"/><use transform="matrix(.7 0 0 .7 153.161 36.781)" xlink:href="#HelveticaWorld-Regular-49"/></g></g></g><path clip-path="url(#paf0d474de2)" d="M41.5 271.789l14.88-.101 14.88.104 14.88-.046 14.88-.022 14.88-.122 14.88.133 14.88-.32 14.88-.146 14.88-.42 14.88-1.047 14.88-1.328 14.88-2.858 14.88-4.995 14.88-7.772 14.88-10.242 14.88-11.526 14.88-13.827 14.88-23.987 14.88-20.873 14.88-18.319 14.88-74.679 14.88-.886 14.88-15.8 14.88-15.46" fill="none" stroke="#1f77b4" stroke-linecap="square" stroke-width="1.5" id="line2d_15"/><path clip-path="url(#paf0d474de2)" d="M41.5 295.01l14.88-.019 14.88-.252 14.88-.015 14.88.186 14.88-.247 14.88.104 14.88-.604 14.88-.193 14.88-.632 14.88-1.331 14.88-2.41 14.88-3.401 14.88-5.949 14.88-8.225 14.88-12.295 14.88-12.547 14.88-14.032 14.88-31.227 14.88-21.96 14.88-5.639 14.88-78.698 14.88-16.695 14.88-15.516 14.88-15.061" fill="none" stroke="#ff7f0e" stroke-linecap="square" stroke-width="1.5" id="line2d_16"/><path clip-path="url(#paf0d474de2)" d="M41.5 297.52l14.88-.049 14.88-.08 14.88.086 14.88-.054 14.88.145 14.88-.36 14.88-.535 14.88-.232 14.88-.362 14.88-1.61 14.88-2.176 14.88-3.863 14.88-6.548 14.88-8.664 14.88-12.885 14.88-12.825 14.88-14.245 14.88-30.735 14.88-23.618 14.88-5.537 14.88-77.414 14.88-16.763 14.88-15.386 14.88-16.456" fill="none" stroke="#2ca02c" stroke-linecap="square" stroke-width="1.5" id="line2d_17"/><path clip-path="url(#paf0d474de2)" d="M41.5 301.59l14.88.348 14.88-.093 14.88-.386 14.88.183 14.88-.26 14.88-.549 14.88-.534 14.88-.861 14.88-.952 14.88-2.518 14.88-4.83 14.88-6.747 14.88-10.215 14.88-12.867 14.88-13.796 14.88-13.71 14.88-15.14 14.88-24.332 14.88-21.639 14.88-18.346 14.88-59.397 14.88-15.958 14.88-15.963 14.88-15.743" fill="none" stroke="#d62728" stroke-linecap="square" stroke-width="1.5" id="line2d_18"/><path clip-path="url(#paf0d474de2)" d="M41.5 313.148l14.88.213 14.88-.313 14.88.156 14.88.034 14.88-.311 14.88-.545 14.88-1.091 14.88-.99 14.88-2.401 14.88-3.59 14.88-6.326 14.88-8.79 14.88-11.747 14.88-14.321 14.88-14.676 14.88-14.17 14.88-15.368 14.88-24.3 14.88-21.906 14.88-18.456 14.88-58.307 14.88-17.492 14.88-16.146 14.88-13.509" fill="none" stroke="#9467bd" stroke-linecap="square" stroke-width="1.5" id="line2d_19"/><g transform="matrix(.14 0 0 -.14 398.834 23.383)" fill="#1f77b4" id="text_11"><defs><path d="M39.594 34.719q-1.89 11.187-12.39 11.187-6.5 0-10.454-5.203-3.953-5.203-3.953-14.484 0-10.11 3.656-15.11 3.672-5 10.64-5 4.688 0 8.11 3.438 3.422 3.437 4.39 8.953h8.5q-1.312-9.703-6.859-14.86-5.547-5.156-14.328-5.156-10.297 0-16.89 7.047-6.594 7.063-6.594 19.172 0 13.281 6.594 21.188 6.593 7.922 18.5 7.922 8.687 0 13.843-5.204 5.157-5.203 5.735-13.89z" id="HelveticaWorld-Regular-99"/><path d="M0-12.313v4.891h55.61v-4.89z" id="HelveticaWorld-Regular-95"/></defs><use xlink:href="#HelveticaWorld-Regular-99"/><use x="51.27" xlink:href="#HelveticaWorld-Regular-95"/></g><g transform="matrix(.14 0 0 -.14 398.834 65.383)" fill="#ff7f0e" id="text_12"><defs><path d="M36.078 37.406q-.187 4.688-3.344 6.735-3.14 2.047-9.047 2.047-4.296 0-7.359-1.907-3.047-1.89-3.047-5.468 0-2.829 1.797-4.172 1.813-1.344 7.828-2.86l8.688-2.187q7.906-2 11.297-5.11 3.406-3.093 3.406-8.656 0-7.719-5.64-12.531-5.641-4.813-15.063-4.813-11 0-16.64 4.563-5.626 4.578-5.735 13.75h8.5q.203-5.422 3.594-8.063 3.39-2.625 10.171-2.625 5.516 0 8.766 2.188 3.25 2.203 3.25 6.11 0 2.78-2.11 4.437-2.093 1.672-8.296 3.078l-10.203 2.5q-6.203 1.562-9.157 4.656-2.953 3.094-2.953 8.031 0 7.72 5.516 12.203 5.531 4.5 14.406 4.5 9.485 0 14.531-4.624 5.047-4.61 5.344-11.782z" id="HelveticaWorld-Regular-115"/><path d="M17.188 45.016V10.984q0-2 1.093-3.046 1.11-1.047 3.938-1.047h3.375V0Q20.797-.688 19-.688q-5.516 0-8.063 2.641-2.53 2.64-2.53 8.547v34.516H1.311v7.28h7.094v14.595h8.781V52.297h8.407v-7.281z" id="HelveticaWorld-Regular-116"/><path d="M50 0H38.719L22.406 26.422l-7.312-6.594V0h-8.5v71.781h8.5v-41.61l22.5 22.126H48.78L28.813 32.813z" id="HelveticaWorld-Regular-107"/></defs><use xlink:href="#HelveticaWorld-Regular-115"/><use x="50" xlink:href="#HelveticaWorld-Regular-116"/><use x="77.686" xlink:href="#HelveticaWorld-Regular-97"/><use x="132.617" xlink:href="#HelveticaWorld-Regular-99"/><use x="183.887" xlink:href="#HelveticaWorld-Regular-107"/></g><g transform="matrix(.14 0 0 -.14 398.834 51.383)" fill="#2ca02c" id="text_13"><defs><path d="M39.406 52.297h9.625L29.11 0h-9.437L.594 52.297h10.203L24.422 9.719h.187z" id="HelveticaWorld-Regular-118"/></defs><use xlink:href="#HelveticaWorld-Regular-118"/><use x="48.609" xlink:href="#HelveticaWorld-Regular-115"/><use x="98.609" xlink:href="#HelveticaWorld-Regular-116"/><use x="126.295" xlink:href="#HelveticaWorld-Regular-97"/><use x="181.227" xlink:href="#HelveticaWorld-Regular-99"/><use x="232.496" xlink:href="#HelveticaWorld-Regular-107"/></g><g transform="matrix(.14 0 0 -.14 398.834 37.383)" fill="#d62728" id="text_14"><defs><path d="M12.703 26.219q0-8.735 3.953-14.375 3.953-5.64 11.219-5.64 7.531 0 11.438 5.905 3.906 5.907 3.906 14.11 0 8.297-3.907 14.078-3.906 5.797-11.437 5.797-6.969 0-11.078-5.453-4.094-5.438-4.094-14.422zm-8.984 0q0 11.672 6.484 19.625 6.5 7.968 17.672 7.968 11.438 0 17.875-8.062 6.453-8.047 6.453-19.531 0-11.516-6.406-19.625-6.39-8.11-17.922-8.11-11.078 0-17.625 7.86-6.531 7.86-6.531 19.875z" id="HelveticaWorld-Regular-111"/><path d="M6.11 52.297h8.78V17.578q0-5.765 2.61-8.625Q20.125 6.11 25 6.11q6.781 0 10.594 4.797 3.812 4.813 3.812 12.578v28.813h8.782V0H39.89v7.625l-.188.188q-4.984-9.329-16.61-9.329-7.515 0-12.25 4.094Q6.11 6.688 6.11 14.703z" id="HelveticaWorld-Regular-117"/><path d="M6.594 52.297h8.297v-7.375h.203q5.906 8.89 15.812 8.89 9.813 0 13.922-8.5 3.75 4.594 7.266 6.547 3.515 1.953 8.703 1.953 6.781 0 11.484-4.453Q77 44.922 77 36.187V0h-8.781v33.797q0 6.094-2.297 9.094-2.297 3.015-7.422 3.015-5.172 0-8.75-4.203-3.563-4.203-3.563-9.812V0h-8.78v36.188q0 4.53-2.11 7.124-2.094 2.594-6.094 2.594-6.297 0-10.062-4.687-3.766-4.688-3.766-12.703V0H6.594z" id="HelveticaWorld-Regular-109"/></defs><use xlink:href="#HelveticaWorld-Regular-99"/><use x="51.27" xlink:href="#HelveticaWorld-Regular-111"/><use x="107.178" xlink:href="#HelveticaWorld-Regular-108"/><use x="129.199" xlink:href="#HelveticaWorld-Regular-117"/><use x="183.984" xlink:href="#HelveticaWorld-Regular-109"/><use x="266.992" xlink:href="#HelveticaWorld-Regular-110"/><use x="322.168" xlink:href="#HelveticaWorld-Regular-95"/><use x="377.783" xlink:href="#HelveticaWorld-Regular-115"/><use x="427.783" xlink:href="#HelveticaWorld-Regular-116"/><use x="455.469" xlink:href="#HelveticaWorld-Regular-97"/><use x="510.4" xlink:href="#HelveticaWorld-Regular-99"/><use x="561.67" xlink:href="#HelveticaWorld-Regular-107"/></g><g transform="matrix(.14 0 0 -.14 398.834 79.383)" fill="#9467bd" id="text_15"><use xlink:href="#HelveticaWorld-Regular-99"/><use x="51.27" xlink:href="#HelveticaWorld-Regular-111"/><use x="107.178" xlink:href="#HelveticaWorld-Regular-110"/><use x="162.354" xlink:href="#HelveticaWorld-Regular-99"/><use x="213.623" xlink:href="#HelveticaWorld-Regular-97"/><use x="268.555" xlink:href="#HelveticaWorld-Regular-116"/></g><g transform="matrix(.14 0 0 -.14 185.167 17.25)" fill="#969696" id="text_16"><defs><path d="M17.828 39.11h22.453q7.813 0 11.203 3.203 3.407 3.203 3.407 9.203 0 5.468-2.938 8.718-2.922 3.25-10.062 3.25H17.828zm0-39.11H8.11v71.781h33.203q11.563 0 17.516-4.937 5.969-4.922 5.969-14.36 0-6.187-2.39-10.343-2.391-4.157-7.516-6.844 4.39-1.61 6.343-4.516 1.953-2.906 2.25-9l.625-13.375q.094-3.328 1.047-4.672.953-1.343 2.672-2.125V0H55.812q-.921 2.688-1.312 8.156-.39 5.469-.39 9.86 0 2.203-.391 4.5-.39 2.297-1.719 4.14-1.313 1.86-3.86 3-2.53 1.157-6.828 1.157H17.828z" id="HelveticaWorld-Regular-82"/><path d="M6.594 61.813v9.968h8.781v-9.969zM15.375 0H6.594v52.297h8.781z" id="HelveticaWorld-Regular-105"/><path d="M14.203-12.5H25v-7.078H6.297v91.797H25v-7.125H14.203z" id="HelveticaWorld-Regular-91"/><path d="M13.625 65.094H2.781v7.125h18.703v-91.797H2.781v7.078h10.844z" id="HelveticaWorld-Regular-93"/></defs><use xlink:href="#HelveticaWorld-Regular-82"/><use x="70.387" xlink:href="#HelveticaWorld-Regular-117"/><use x="125.172" xlink:href="#HelveticaWorld-Regular-110"/><use x="180.348" xlink:href="#HelveticaWorld-Regular-116"/><use x="208.033" xlink:href="#HelveticaWorld-Regular-105"/><use x="230.055" xlink:href="#HelveticaWorld-Regular-109"/><use x="313.063" xlink:href="#HelveticaWorld-Regular-101"/><use x="368.482" xlink:href="#HelveticaWorld-Regular-32"/><use x="392.896" xlink:href="#HelveticaWorld-Regular-91"/><use x="420.68" xlink:href="#HelveticaWorld-Regular-115"/><use x="470.68" xlink:href="#HelveticaWorld-Regular-93"/></g></g></g><defs><clipPath id="paf0d474de2"><path d="M41.5 47.249h357.12v266.112H41.5z"/></clipPath></defs></svg>