<svg xmlns="http://www.w3.org/2000/svg" width="436.87" height="153.956" viewBox="0 0 409.57 144.337"><path d="M59.138 1.863c-3.81 12.242 12.85 19.956 11.57 24.058-6.647 2.56-13.999-1.187-20.984.878-5.721-.383-11.325 1.026-16.432 3.533-6.136 1.982-10.17 7.165-14.864 11.225-3.464 1.568-4.49 6.217-6.804 7.978-3.672-.511-12.524-.31-7.969 6.32 1.22 2.382 5.745 6.324 7.59 4.561-2.378 2.855-4.766 1.418-6.312 4.922-2.1 4.186-2.544 9.11-4.507 13.246-.53 2.953.25 11.144 3.957 9.287 7.275-4.485 1.743-19.622 19.276-18.145 4.569-.434 7.79-4.465 11.285-7.074 2.72-.835 5.99-2.793 8.31-4.082 5.21-2.793 23.44-5.885 25.036-4.952 5.387 1.527 11.246.988 16.521 3.171 2.708 1.458 11.195 5.673 10.554-.104-.347-2.504-6.755-5.518-1.177-4.022 3.873.547 9.873 4.054 12.263-.44-.192-4.866-5.182-1.923-7.514-3.5-2.531-.937-3.592-1.72-6.804-2.423-5.975-.698-.958-5.048 2.588-4.869 5.882-.289 4.056-8.503 1.569-11.285-2.491-5.22-7.826-8.042-13.195-9.428-2.35-4.865-4.261-10.08-7.704-14.285-2.4-2.35-8.058-4.476-10.115-2.28-1.074.354-4.416-7.671-6.138-2.29z" fill="#3774a7"/><path d="M47.377 142.471c3.796-12.247-12.875-19.939-11.6-24.043 6.643-2.567 14 1.17 20.982-.905 5.722.376 11.324-1.04 16.428-3.554 6.133-1.99 10.16-7.178 14.849-11.244 3.462-1.573 4.481-6.223 6.794-7.987 3.673.507 12.524.293 7.96-6.33-1.223-2.38-5.752-6.317-7.595-4.551 2.374-2.858 4.764-1.424 6.305-4.93 2.095-4.189 2.533-9.114 4.49-13.252.526-2.954-.265-11.143-3.97-9.282-7.268 4.495-1.716 19.624-19.252 18.17-4.568.44-7.783 4.475-11.276 7.088-2.719.839-5.985 2.801-8.303 4.093-5.207 2.8-23.434 5.915-25.031 4.984-5.389-1.52-11.247-.972-16.525-3.15-2.71-1.453-11.202-5.658-10.554.119.35 2.503 6.763 5.509 1.183 4.02-3.874-.542-9.878-4.04-12.262.457.197 4.865 5.183 1.915 7.518 3.49 2.532.933 3.595 1.715 6.807 2.413 5.975.69.965 5.047-2.581 4.873-5.882.296-4.045 8.508-1.555 11.287 2.498 5.217 7.836 8.031 13.207 9.41 2.356 4.863 4.275 10.075 7.722 14.276 2.404 2.346 8.065 4.466 10.118 2.266 1.074-.354 4.426 7.666 6.142 2.283z" fill="#ffdc4e"/><g aria-label="perfplot" style="line-height:0%;-inkscape-font-specification:Calibri" font-weight="400" font-size="90.002" font-family="Calibri" letter-spacing="0" word-spacing="0" fill="#4d4d4d" stroke-width=".938"><path d="M158.904 76.902q0 5.185-1.143 9.316-1.098 4.131-3.296 7.032-2.153 2.856-5.36 4.438-3.209 1.538-7.34 1.538-1.758 0-3.252-.351-1.494-.352-2.944-1.099-1.407-.747-2.813-1.89-1.406-1.142-2.988-2.68v19.775q0 .352-.176.616-.176.263-.571.44-.396.175-1.099.263-.703.088-1.802.088-1.054 0-1.758-.088-.703-.088-1.142-.264-.396-.176-.571-.44-.132-.263-.132-.615v-55.24q0-.395.132-.615.131-.264.527-.44.395-.175 1.01-.22.616-.087 1.495-.087.923 0 1.494.088.615.044 1.01.22.396.175.528.439.176.22.176.615v5.318q1.802-1.846 3.472-3.208 1.67-1.363 3.34-2.242 1.713-.922 3.471-1.362 1.802-.483 3.78-.483 4.306 0 7.339 1.67 3.032 1.67 4.922 4.57 1.933 2.9 2.812 6.768.879 3.823.879 8.13zm-7.647.835q0-3.033-.483-5.845-.44-2.857-1.582-5.054-1.099-2.197-2.988-3.516-1.89-1.318-4.703-1.318-1.406 0-2.768.44-1.363.395-2.769 1.318-1.406.879-2.944 2.373-1.538 1.45-3.252 3.604V85.47q2.988 3.648 5.669 5.581 2.68 1.934 5.625 1.934 2.725 0 4.658-1.318 1.978-1.319 3.164-3.516 1.23-2.197 1.802-4.922.571-2.725.571-5.493zM203.553 75.803q0 1.714-.879 2.461-.835.703-1.933.703h-25.928q0 3.296.659 5.933t2.197 4.526q1.538 1.89 4 2.9 2.46 1.012 6.02 1.012 2.812 0 5.01-.44 2.197-.483 3.779-1.055 1.626-.57 2.637-1.01 1.054-.484 1.582-.484.307 0 .527.176.264.132.396.44.131.307.175.878.088.528.088 1.319 0 .571-.044 1.01-.043.396-.131.748-.044.307-.22.571-.132.264-.396.527-.22.22-1.406.791-1.187.528-3.076 1.055-1.89.527-4.395.923-2.46.44-5.273.44-4.878 0-8.57-1.363-3.647-1.362-6.152-4.043-2.505-2.68-3.78-6.724-1.274-4.043-1.274-9.404 0-5.098 1.318-9.141 1.319-4.087 3.78-6.9 2.505-2.856 6.02-4.35 3.516-1.538 7.867-1.538 4.658 0 7.91 1.494 3.296 1.494 5.405 4.043 2.11 2.505 3.077 5.933 1.01 3.383 1.01 7.25zm-7.295-2.153q.132-5.713-2.549-8.965-2.636-3.252-7.866-3.252-2.68 0-4.702 1.01-2.022 1.011-3.384 2.681-1.362 1.67-2.11 3.911-.747 2.198-.834 4.615zM237.743 60.334q0 .967-.044 1.626-.044.66-.175 1.055-.132.351-.352.571-.176.176-.527.176-.352 0-.88-.176-.483-.22-1.142-.395-.615-.22-1.406-.396-.791-.176-1.714-.176-1.099 0-2.153.44-1.055.44-2.242 1.45-1.142 1.01-2.417 2.68-1.274 1.67-2.812 4.088v26.016q0 .351-.176.615-.176.22-.571.396-.396.175-1.099.263-.703.088-1.802.088-1.054 0-1.758-.088-.703-.088-1.142-.263-.396-.176-.571-.396-.132-.264-.132-.615V57.74q0-.351.132-.571.131-.264.527-.44.395-.22 1.01-.263.616-.088 1.627-.088.966 0 1.582.088.659.044 1.01.264.352.175.484.439.176.22.176.571v5.757q1.626-2.373 3.032-3.867 1.45-1.494 2.725-2.33 1.274-.878 2.505-1.186 1.274-.351 2.548-.351.572 0 1.275.088.747.044 1.538.22.791.175 1.406.395.66.22.923.44.264.219.352.439.088.176.132.483.087.308.087.923.044.571.044 1.582zM267.758 41.481q0 .835-.087 1.363-.088.483-.22.79-.088.308-.264.44-.176.088-.44.088-.307 0-.79-.176-.44-.22-1.099-.44-.66-.263-1.582-.439-.879-.22-2.066-.22-1.626 0-2.768.528-1.143.527-1.846 1.67-.703 1.098-1.01 2.9-.308 1.758-.308 4.307v4.307h8.833q.351 0 .571.175.264.132.44.528.22.351.307.923.132.571.132 1.406 0 1.582-.395 2.285-.396.703-1.055.703h-8.833v34.674q0 .351-.176.615-.176.22-.615.396-.396.175-1.099.263-.703.088-1.758.088-1.054 0-1.758-.088-.703-.088-1.142-.263-.396-.176-.571-.396-.176-.264-.176-.615V62.619h-5.581q-.704 0-1.055-.703-.352-.703-.352-2.285 0-.835.088-1.406.088-.572.264-.923.176-.396.44-.528.263-.175.615-.175h5.58v-4.087q0-4.131.748-7.076.79-2.988 2.373-4.878 1.582-1.89 3.955-2.768 2.417-.923 5.67-.923 1.537 0 2.987.308 1.45.263 2.242.615.79.307 1.054.571.264.264.44.703.176.396.22 1.011.087.571.087 1.406zM309.903 76.902q0 5.185-1.143 9.316-1.098 4.131-3.296 7.032-2.153 2.856-5.361 4.438-3.208 1.538-7.34 1.538-1.757 0-3.251-.351-1.494-.352-2.945-1.099-1.406-.747-2.812-1.89-1.406-1.142-2.988-2.68v19.775q0 .352-.176.616-.176.263-.572.44-.395.175-1.098.263-.703.088-1.802.088-1.055 0-1.758-.088-.703-.088-1.142-.264-.396-.176-.572-.44-.132-.263-.132-.615v-55.24q0-.395.132-.615.132-.264.528-.44.395-.175 1.01-.22.616-.087 1.495-.087.922 0 1.494.088.615.044 1.01.22.396.175.528.439.176.22.176.615v5.318q1.801-1.846 3.471-3.208 1.67-1.363 3.34-2.242 1.714-.922 3.472-1.362 1.802-.483 3.78-.483 4.306 0 7.338 1.67 3.033 1.67 4.922 4.57 1.934 2.9 2.813 6.768.879 3.823.879 8.13zm-7.647.835q0-3.033-.483-5.845-.44-2.857-1.582-5.054-1.099-2.197-2.989-3.516-1.89-1.318-4.702-1.318-1.406 0-2.768.44-1.363.395-2.77 1.318-1.405.879-2.943 2.373-1.539 1.45-3.252 3.604V85.47q2.988 3.648 5.669 5.581 2.68 1.934 5.625 1.934 2.724 0 4.658-1.318 1.978-1.319 3.164-3.516 1.23-2.197 1.802-4.922.571-2.725.571-5.493zM328.052 97.293q0 .351-.175.615-.176.22-.572.396-.395.175-1.098.263-.703.088-1.802.088-1.055 0-1.758-.088-.703-.088-1.142-.263-.396-.176-.572-.396-.132-.264-.132-.615V38.58q0-.352.132-.615.176-.264.572-.44.439-.176 1.142-.264.703-.087 1.758-.087 1.099 0 1.802.087.703.088 1.098.264.396.176.572.44.175.263.175.615zM378.327 77.078q0 4.834-1.275 8.92-1.274 4.044-3.823 6.988-2.505 2.944-6.328 4.614-3.78 1.626-8.79 1.626-4.877 0-8.525-1.45-3.604-1.45-6.02-4.219-2.418-2.768-3.604-6.723-1.187-3.956-1.187-8.965 0-4.834 1.23-8.878 1.275-4.087 3.78-7.03 2.549-2.945 6.328-4.571 3.78-1.626 8.834-1.626 4.878 0 8.481 1.45 3.648 1.45 6.065 4.219 2.417 2.768 3.603 6.724 1.23 3.955 1.23 8.92zm-7.647.483q0-3.208-.615-6.065-.571-2.856-1.934-5.01-1.362-2.153-3.691-3.383-2.33-1.275-5.801-1.275-3.208 0-5.537 1.143-2.285 1.142-3.78 3.252-1.494 2.065-2.24 4.922-.704 2.856-.704 6.24 0 3.252.571 6.109.616 2.856 1.978 5.01 1.406 2.109 3.735 3.383 2.33 1.23 5.801 1.23 3.164 0 5.493-1.142 2.33-1.142 3.824-3.208 1.494-2.065 2.197-4.922.703-2.856.703-6.284zM409.572 94.392q0 1.275-.175 2.022-.176.747-.528 1.098-.351.352-1.054.66-.704.307-1.626.483-.88.22-1.89.352-1.01.131-2.022.131-3.076 0-5.273-.79-2.197-.836-3.604-2.462-1.406-1.67-2.065-4.174-.615-2.55-.615-5.977V62.619h-5.538q-.659 0-1.054-.703-.396-.703-.396-2.285 0-.835.088-1.406.132-.572.308-.923.175-.396.44-.528.307-.175.658-.175h5.494v-9.405q0-.307.131-.571.176-.264.572-.44.44-.22 1.142-.307.703-.088 1.758-.088 1.099 0 1.802.088.703.088 1.099.307.395.176.57.44.177.264.177.571V56.6h10.151q.352 0 .615.175.264.132.44.528.22.351.308.923.087.571.087 1.406 0 1.582-.395 2.285-.396.703-1.055.703h-10.151V84.68q0 4.087 1.186 6.197 1.23 2.065 4.35 2.065 1.012 0 1.803-.176.79-.22 1.406-.44.615-.219 1.055-.395.44-.22.79-.22.22 0 .396.132.22.088.308.396.132.308.22.835.087.527.087 1.318z" style="-inkscape-font-specification:Calibri"/></g></svg>