<svg height="414.491" viewBox="0 0 408.101 310.868" width="544.135" xmlns="http://www.w3.org/2000/svg" xmlns:xlink="http://www.w3.org/1999/xlink"><defs><style>*{stroke-linecap:butt;stroke-linejoin:round}</style></defs><g id="figure_1"><path d="M0 310.868h408.101V0H0z" fill="none" id="patch_1"/><g id="axes_1"><path d="M43.781 273.312h357.12V7.2H43.781z" fill="none" id="patch_2"/><g id="matplotlib.axis_1"><g id="xtick_1"><path clip-path="url(#p0660efde31)" d="M59.994 273.312V7.2" fill="none" stroke="#b0b0b0" stroke-linecap="square" stroke-width=".8" id="line2d_1"/><g id="line2d_2"><defs><path d="M0 0v3.5" id="mffa838be64" stroke="#000" stroke-width=".8"/></defs><use x="59.994" xlink:href="#mffa838be64" y="273.312" stroke="#000" stroke-width=".8"/></g><g id="text_1"><defs><path d="M31.781 66.406q-7.61 0-11.453-7.5Q16.5 51.422 16.5 36.375q0-14.984 3.828-22.484 3.844-7.5 11.453-7.5 7.672 0 11.5 7.5 3.844 7.5 3.844 22.484 0 15.047-3.844 22.531-3.828 7.5-11.5 7.5zm0 7.813q12.266 0 18.735-9.703 6.468-9.688 6.468-28.141 0-18.406-6.468-28.11-6.47-9.687-18.735-9.687-12.25 0-18.718 9.688-6.47 9.703-6.47 28.109 0 18.453 6.47 28.14Q19.53 74.22 31.78 74.22z" id="DejaVuSans-48"/></defs><use xlink:href="#DejaVuSans-48" transform="matrix(.1 0 0 -.1 56.813 287.91)"/></g></g><g id="xtick_2"><path clip-path="url(#p0660efde31)" d="M109.536 273.312V7.2" fill="none" stroke="#b0b0b0" stroke-linecap="square" stroke-width=".8" id="line2d_3"/><use x="109.536" xlink:href="#mffa838be64" y="273.312" stroke="#000" stroke-width=".8" id="line2d_4"/><g id="text_2"><defs><path d="M19.188 8.297h34.421V0H7.33v8.297q5.609 5.812 15.296 15.594 9.703 9.797 12.188 12.64 4.734 5.313 6.609 9 1.89 3.688 1.89 7.25 0 5.813-4.078 9.469-4.078 3.672-10.625 3.672-4.64 0-9.797-1.61-5.14-1.609-11-4.89v9.969Q13.767 71.78 18.938 73q5.188 1.219 9.485 1.219 11.328 0 18.062-5.672 6.735-5.656 6.735-15.125 0-4.5-1.688-8.531-1.672-4.016-6.125-9.485-1.218-1.422-7.765-8.187-6.532-6.766-18.453-18.922z" id="DejaVuSans-50"/><path d="M10.797 72.906h38.719v-8.312H19.828v-17.86q2.14.735 4.281 1.094 2.157.36 4.313.36 12.203 0 19.328-6.688 7.14-6.688 7.14-18.11 0-11.765-7.328-18.296-7.328-6.516-20.656-6.516-4.593 0-9.36.781-4.75.782-9.827 2.344v9.922q4.39-2.39 9.078-3.563 4.687-1.171 9.906-1.171 8.453 0 13.375 4.437 4.938 4.438 4.938 12.063 0 7.609-4.938 12.047-4.922 4.453-13.375 4.453-3.953 0-7.89-.875-3.922-.875-8.016-2.735z" id="DejaVuSans-53"/></defs><g transform="matrix(.1 0 0 -.1 96.81 287.91)"><use xlink:href="#DejaVuSans-50"/><use x="63.623" xlink:href="#DejaVuSans-53"/><use x="127.246" xlink:href="#DejaVuSans-48"/><use x="190.869" xlink:href="#DejaVuSans-48"/></g></g></g><g id="xtick_3"><path clip-path="url(#p0660efde31)" d="M159.077 273.312V7.2" fill="none" stroke="#b0b0b0" stroke-linecap="square" stroke-width=".8" id="line2d_5"/><use x="159.077" xlink:href="#mffa838be64" y="273.312" stroke="#000" stroke-width=".8" id="line2d_6"/><g transform="matrix(.1 0 0 -.1 146.352 287.91)" id="text_3"><use xlink:href="#DejaVuSans-53"/><use x="63.623" xlink:href="#DejaVuSans-48"/><use x="127.246" xlink:href="#DejaVuSans-48"/><use x="190.869" xlink:href="#DejaVuSans-48"/></g></g><g id="xtick_4"><path clip-path="url(#p0660efde31)" d="M208.618 273.312V7.2" fill="none" stroke="#b0b0b0" stroke-linecap="square" stroke-width=".8" id="line2d_7"/><use x="208.618" xlink:href="#mffa838be64" y="273.312" stroke="#000" stroke-width=".8" id="line2d_8"/><g id="text_4"><defs><path d="M8.203 72.906h46.875v-4.203L28.61 0H18.312L43.22 64.594H8.203z" id="DejaVuSans-55"/></defs><g transform="matrix(.1 0 0 -.1 195.893 287.91)"><use xlink:href="#DejaVuSans-55"/><use x="63.623" xlink:href="#DejaVuSans-53"/><use x="127.246" xlink:href="#DejaVuSans-48"/><use x="190.869" xlink:href="#DejaVuSans-48"/></g></g></g><g id="xtick_5"><path clip-path="url(#p0660efde31)" d="M258.16 273.312V7.2" fill="none" stroke="#b0b0b0" stroke-linecap="square" stroke-width=".8" id="line2d_9"/><use x="258.16" xlink:href="#mffa838be64" y="273.312" stroke="#000" stroke-width=".8" id="line2d_10"/><g id="text_5"><defs><path d="M12.406 8.297h16.11v55.625l-17.532-3.516v8.985l17.438 3.515h9.86V8.296H54.39V0H12.406z" id="DejaVuSans-49"/></defs><g transform="matrix(.1 0 0 -.1 242.253 287.91)"><use xlink:href="#DejaVuSans-49"/><use x="63.623" xlink:href="#DejaVuSans-48"/><use x="127.246" xlink:href="#DejaVuSans-48"/><use x="190.869" xlink:href="#DejaVuSans-48"/><use x="254.492" xlink:href="#DejaVuSans-48"/></g></g></g><g id="xtick_6"><path clip-path="url(#p0660efde31)" d="M307.701 273.312V7.2" fill="none" stroke="#b0b0b0" stroke-linecap="square" stroke-width=".8" id="line2d_11"/><use x="307.701" xlink:href="#mffa838be64" y="273.312" stroke="#000" stroke-width=".8" id="line2d_12"/><g transform="matrix(.1 0 0 -.1 291.795 287.91)" id="text_6"><use xlink:href="#DejaVuSans-49"/><use x="63.623" xlink:href="#DejaVuSans-50"/><use x="127.246" xlink:href="#DejaVuSans-53"/><use x="190.869" xlink:href="#DejaVuSans-48"/><use x="254.492" xlink:href="#DejaVuSans-48"/></g></g><g id="xtick_7"><path clip-path="url(#p0660efde31)" d="M357.242 273.312V7.2" fill="none" stroke="#b0b0b0" stroke-linecap="square" stroke-width=".8" id="line2d_13"/><use x="357.242" xlink:href="#mffa838be64" y="273.312" stroke="#000" stroke-width=".8" id="line2d_14"/><g transform="matrix(.1 0 0 -.1 341.336 287.91)" id="text_7"><use xlink:href="#DejaVuSans-49"/><use x="63.623" xlink:href="#DejaVuSans-53"/><use x="127.246" xlink:href="#DejaVuSans-48"/><use x="190.869" xlink:href="#DejaVuSans-48"/><use x="254.492" xlink:href="#DejaVuSans-48"/></g></g><g id="text_8"><defs><path d="M9.422 75.984h8.984V0H9.422z" id="DejaVuSans-108"/><path d="M56.203 29.594v-4.39H14.891q.593-9.282 5.593-14.142 5-4.859 13.938-4.859 5.172 0 10.031 1.266 4.86 1.265 9.656 3.812v-8.5Q49.266.734 44.187-.344 39.11-1.422 33.892-1.422q-13.094 0-20.735 7.61-7.64 7.625-7.64 20.625 0 13.421 7.25 21.296Q20.016 56 32.328 56q11.031 0 17.453-7.11 6.422-7.093 6.422-19.296zm-8.984 2.64q-.094 7.36-4.125 11.75-4.032 4.407-10.672 4.407-7.516 0-12.031-4.25-4.516-4.25-5.203-11.97z" id="DejaVuSans-101"/><path d="M54.89 33.016V0h-8.984v32.719q0 7.765-3.031 11.61-3.031 3.858-9.078 3.858-7.281 0-11.484-4.64-4.204-4.625-4.204-12.64V0H9.08v54.688h9.03v-8.5q3.235 4.937 7.594 7.374Q30.078 56 35.797 56q9.422 0 14.25-5.828 4.844-5.828 4.844-17.156z" id="DejaVuSans-110"/><path d="M31 75.875q-6.531-11.219-9.719-22.219-3.172-10.984-3.172-22.265 0-11.266 3.203-22.328Q24.517-2 31-13.188h-7.813Q15.875-1.704 12.235 9.375q-3.64 11.078-3.64 22.016 0 10.89 3.61 21.922 3.624 11.046 10.983 22.562z" id="DejaVuSans-40"/><path d="M34.281 27.484q-10.89 0-15.093-2.484-4.204-2.484-4.204-8.5 0-4.781 3.157-7.594 3.156-2.797 8.562-2.797 7.485 0 12 5.297 4.516 5.297 4.516 14.078v2zm17.922 3.72V0H43.22v8.297Q40.14 3.328 35.547.953q-4.594-2.375-11.234-2.375-8.391 0-13.36 4.719Q6 8.016 6 15.922q0 9.219 6.172 13.906 6.187 4.688 18.437 4.688h12.61v.89q0 6.203-4.078 9.594-4.078 3.39-11.453 3.39-4.688 0-9.141-1.124-4.438-1.125-8.531-3.375v8.312q4.921 1.906 9.562 2.844 4.64.953 9.031.953 11.875 0 17.735-6.156 5.86-6.14 5.86-18.64z" id="DejaVuSans-97"/><path d="M8.016 75.875h7.812q7.313-11.516 10.953-22.563 3.64-11.03 3.64-21.921 0-10.938-3.64-22.016-3.64-11.078-10.953-22.563H8.016Q14.5-2 17.703 9.063q3.203 11.063 3.203 22.329 0 11.28-3.203 22.265-3.203 11-9.687 22.219z" id="DejaVuSans-41"/></defs><g transform="matrix(.1 0 0 -.1 207.741 301.589)"><use xlink:href="#DejaVuSans-108"/><use x="27.783" xlink:href="#DejaVuSans-101"/><use x="89.307" xlink:href="#DejaVuSans-110"/><use x="152.686" xlink:href="#DejaVuSans-40"/><use x="191.699" xlink:href="#DejaVuSans-97"/><use x="252.979" xlink:href="#DejaVuSans-41"/></g></g></g><g id="matplotlib.axis_2"><g id="ytick_1"><path clip-path="url(#p0660efde31)" d="M43.781 250.566h357.12" fill="none" stroke="#b0b0b0" stroke-linecap="square" stroke-width=".8" id="line2d_15"/><g id="line2d_16"><defs><path d="M0 0h-3.5" id="m5ef69bdb10" stroke="#000" stroke-width=".8"/></defs><use x="43.781" xlink:href="#m5ef69bdb10" y="250.566" stroke="#000" stroke-width=".8"/></g><g id="text_9"><defs><path d="M10.688 12.406H21V0H10.687z" id="DejaVuSans-46"/></defs><g transform="matrix(.1 0 0 -.1 20.878 254.365)"><use xlink:href="#DejaVuSans-48"/><use x="63.623" xlink:href="#DejaVuSans-46"/><use x="95.41" xlink:href="#DejaVuSans-53"/></g></g></g><g id="ytick_2"><path clip-path="url(#p0660efde31)" d="M43.781 199.99h357.12" fill="none" stroke="#b0b0b0" stroke-linecap="square" stroke-width=".8" id="line2d_17"/><use x="43.781" xlink:href="#m5ef69bdb10" y="199.99" stroke="#000" stroke-width=".8" id="line2d_18"/><g transform="matrix(.1 0 0 -.1 20.878 203.789)" id="text_10"><use xlink:href="#DejaVuSans-49"/><use x="63.623" xlink:href="#DejaVuSans-46"/><use x="95.41" xlink:href="#DejaVuSans-48"/></g></g><g id="ytick_3"><path clip-path="url(#p0660efde31)" d="M43.781 149.413h357.12" fill="none" stroke="#b0b0b0" stroke-linecap="square" stroke-width=".8" id="line2d_19"/><use x="43.781" xlink:href="#m5ef69bdb10" y="149.413" stroke="#000" stroke-width=".8" id="line2d_20"/><g transform="matrix(.1 0 0 -.1 20.878 153.213)" id="text_11"><use xlink:href="#DejaVuSans-49"/><use x="63.623" xlink:href="#DejaVuSans-46"/><use x="95.41" xlink:href="#DejaVuSans-53"/></g></g><g id="ytick_4"><path clip-path="url(#p0660efde31)" d="M43.781 98.837h357.12" fill="none" stroke="#b0b0b0" stroke-linecap="square" stroke-width=".8" id="line2d_21"/><use x="43.781" xlink:href="#m5ef69bdb10" y="98.837" stroke="#000" stroke-width=".8" id="line2d_22"/><g transform="matrix(.1 0 0 -.1 20.878 102.636)" id="text_12"><use xlink:href="#DejaVuSans-50"/><use x="63.623" xlink:href="#DejaVuSans-46"/><use x="95.41" xlink:href="#DejaVuSans-48"/></g></g><g id="ytick_5"><path clip-path="url(#p0660efde31)" d="M43.781 48.26h357.12" fill="none" stroke="#b0b0b0" stroke-linecap="square" stroke-width=".8" id="line2d_23"/><use x="43.781" xlink:href="#m5ef69bdb10" y="48.261" stroke="#000" stroke-width=".8" id="line2d_24"/><g transform="matrix(.1 0 0 -.1 20.878 52.06)" id="text_13"><use xlink:href="#DejaVuSans-50"/><use x="63.623" xlink:href="#DejaVuSans-46"/><use x="95.41" xlink:href="#DejaVuSans-53"/></g></g><g id="text_14"><defs><path d="M44.39 34.188q3.172-1.079 6.172-4.594 3-3.516 6.032-9.672L66.609 0H56l-9.313 18.703q-3.624 7.328-7.015 9.719-3.39 2.39-9.25 2.39h-10.75V0h-9.86v72.906h22.266q12.5 0 18.656-5.234 6.157-5.219 6.157-15.766 0-6.89-3.203-11.437-3.204-4.532-9.297-6.282zM19.673 64.797V38.922h12.406q7.125 0 10.766 3.297 3.64 3.297 3.64 9.687 0 6.39-3.64 9.64-3.64 3.25-10.766 3.25z" id="DejaVuSans-82"/><path d="M8.5 21.578v33.11h8.984V21.922q0-7.766 3.016-11.656 3.031-3.875 9.094-3.875 7.265 0 11.484 4.64 4.234 4.64 4.234 12.656v31h8.985V0h-8.984v8.406Q42.047 3.422 37.718 1q-4.313-2.422-10.032-2.422-9.421 0-14.312 5.86Q8.5 10.296 8.5 21.578zM31.11 56z" id="DejaVuSans-117"/><path d="M18.313 70.219V54.688h18.5v-6.985h-18.5V18.016q0-6.688 1.828-8.594 1.828-1.906 7.453-1.906h9.218V0h-9.218q-10.407 0-14.36 3.875-3.953 3.89-3.953 14.14v29.688H2.687v6.984h6.594V70.22z" id="DejaVuSans-116"/><path d="M9.422 54.688h8.984V0H9.422zm0 21.296h8.984v-11.39H9.422z" id="DejaVuSans-105"/><path d="M52 44.188q3.375 6.062 8.063 8.937Q64.75 56 71.093 56q8.548 0 13.188-5.984 4.64-5.97 4.64-17V0h-9.03v32.719q0 7.86-2.797 11.656-2.781 3.813-8.485 3.813-6.984 0-11.046-4.641-4.047-4.625-4.047-12.64V0h-9.032v32.719q0 7.906-2.78 11.687-2.782 3.782-8.595 3.782-6.89 0-10.953-4.657-4.047-4.656-4.047-12.625V0H9.08v54.688h9.03v-8.5q3.078 5.03 7.375 7.421Q29.781 56 35.687 56q5.97 0 10.141-3.031Q50 49.953 52 44.187z" id="DejaVuSans-109"/><path d="M41.11 46.297q-1.516.875-3.297 1.281Q36.03 48 33.89 48q-7.625 0-11.703-4.953-4.079-4.953-4.079-14.234V0H9.08v54.688h9.03v-8.5q2.844 4.984 7.375 7.39Q30.031 56 36.531 56q.922 0 2.047-.125 1.125-.11 2.484-.36z" id="DejaVuSans-114"/><path d="M2.984 54.688H12.5L29.594 8.797l17.093 45.89h9.516L35.687 0H23.485z" id="DejaVuSans-118"/><path d="M30.61 48.39q-7.22 0-11.422-5.64-4.204-5.64-4.204-15.453 0-9.813 4.172-15.453 4.188-5.64 11.453-5.64 7.188 0 11.375 5.655 4.203 5.672 4.203 15.438 0 9.719-4.203 15.406-4.187 5.688-11.375 5.688zm0 7.61q11.718 0 18.406-7.625 6.703-7.61 6.703-21.078 0-13.422-6.703-21.078-6.688-7.64-18.407-7.64-11.765 0-18.437 7.64-6.656 7.656-6.656 21.078 0 13.469 6.656 21.078Q18.844 56 30.609 56z" id="DejaVuSans-111"/><path d="M44.281 53.078v-8.5q-3.797 1.953-7.906 2.922-4.094.984-8.5.984-6.688 0-10.031-2.047-3.344-2.046-3.344-6.156 0-3.125 2.39-4.906 2.391-1.781 9.626-3.39l3.078-.688q9.562-2.047 13.593-5.781 4.032-3.735 4.032-10.422 0-7.625-6.032-12.078-6.03-4.438-16.578-4.438-4.39 0-9.156.86Q10.688.296 5.422 2v9.281q4.984-2.594 9.812-3.89 4.829-1.282 9.579-1.282 6.343 0 9.75 2.172 3.421 2.172 3.421 6.125 0 3.656-2.468 5.61-2.453 1.953-10.813 3.765l-3.125.735q-8.344 1.75-12.062 5.39-3.704 3.64-3.704 9.985 0 7.718 5.47 11.906Q16.75 56 26.811 56q4.97 0 9.36-.734 4.406-.72 8.11-2.188z" id="DejaVuSans-115"/><path d="M48.781 52.594v-8.407q-3.812 2.11-7.64 3.157-3.828 1.047-7.735 1.047-8.75 0-13.593-5.547-4.829-5.532-4.829-15.547 0-10.016 4.829-15.563 4.843-5.53 13.593-5.53 3.907 0 7.735 1.046 3.828 1.047 7.64 3.156V2.094Q45.016.344 40.984-.531q-4.015-.89-8.562-.89-12.36 0-19.64 7.765-7.266 7.765-7.266 20.953 0 13.375 7.343 21.031Q20.22 56 33.016 56q4.14 0 8.093-.86 3.953-.843 7.672-2.546z" id="DejaVuSans-99"/><path d="M9.078 75.984h9.031V31.11l26.813 23.578H56.39l-29-25.578L57.625 0H45.906L18.11 26.703V0H9.08z" id="DejaVuSans-107"/></defs><g transform="matrix(0 -.1 -.1 0 14.798 203.39)"><use xlink:href="#DejaVuSans-82"/><use x="69.42" xlink:href="#DejaVuSans-117"/><use x="132.799" xlink:href="#DejaVuSans-110"/><use x="196.178" xlink:href="#DejaVuSans-116"/><use x="235.387" xlink:href="#DejaVuSans-105"/><use x="263.17" xlink:href="#DejaVuSans-109"/><use x="360.582" xlink:href="#DejaVuSans-101"/><use x="422.105" xlink:href="#DejaVuSans-32"/><use x="453.893" xlink:href="#DejaVuSans-114"/><use x="494.975" xlink:href="#DejaVuSans-101"/><use x="556.498" xlink:href="#DejaVuSans-108"/><use x="584.281" xlink:href="#DejaVuSans-97"/><use x="645.561" xlink:href="#DejaVuSans-116"/><use x="684.77" xlink:href="#DejaVuSans-105"/><use x="712.553" xlink:href="#DejaVuSans-118"/><use x="771.732" xlink:href="#DejaVuSans-101"/><use x="833.256" xlink:href="#DejaVuSans-32"/><use x="865.043" xlink:href="#DejaVuSans-116"/><use x="904.252" xlink:href="#DejaVuSans-111"/><use x="965.434" xlink:href="#DejaVuSans-32"/><use x="997.221" xlink:href="#DejaVuSans-115"/><use x="1049.32" xlink:href="#DejaVuSans-116"/><use x="1088.529" xlink:href="#DejaVuSans-97"/><use x="1149.809" xlink:href="#DejaVuSans-99"/><use x="1204.789" xlink:href="#DejaVuSans-107"/></g></g></g><path clip-path="url(#p0660efde31)" d="M60.014 23.296l.02.323.04-1.476.079 5.118.158-4.466.317-3.499.634 5.354 1.269.428 2.536 2.056 5.073 5.078 10.146-1.841 20.292.85 40.585 10.663 81.168 6.633L384.67 56.66" fill="none" stroke="#1f77b4" stroke-linecap="square" stroke-width="1.5" id="line2d_25"/><path clip-path="url(#p0660efde31)" d="M60.014 232.986l.02-.289.04.587.079-.392.158.283.317-.69.634-.027 1.269-1.852 2.536-1.652 5.073.035 10.146-8.351 20.292-11.754 40.585-16.574 81.168-23.124 162.338-34.73" fill="none" stroke="#d62728" stroke-linecap="square" stroke-width="1.5" id="line2d_26"/><path clip-path="url(#p0660efde31)" d="M60.014 261.14l.02.076.04-.446.079.378.158-.4.317-.17.634-.695 1.269-.98 2.536-2.612 5.073-2.556 10.146-7.13 20.292-13.15 40.585-18.651 81.168-26.919L384.67 146.87" fill="none" stroke="#9467bd" stroke-linecap="square" stroke-width="1.5" id="line2d_27"/><path clip-path="url(#p0660efde31)" d="M60.014 199.99h324.655" fill="none" stroke="#ff7f0e" stroke-linecap="square" stroke-width="1.5" id="line2d_28"/><path clip-path="url(#p0660efde31)" d="M60.014 218.797l.02.086.04-.02.079.33.158.384.317-1.619.634.49 1.269-.776 2.536-.274 5.073 1.526 10.146-2.325 20.292-.68 40.585-2.04 81.168-2.334 162.338-3.15" fill="none" stroke="#2ca02c" stroke-linecap="square" stroke-width="1.5" id="line2d_29"/><path d="M43.781 273.312V7.2" fill="none" stroke="#000" stroke-linecap="square" stroke-width=".8" id="patch_3"/><path d="M400.901 273.312V7.2" fill="none" stroke="#000" stroke-linecap="square" stroke-width=".8" id="patch_4"/><path d="M43.781 273.312h357.12" fill="none" stroke="#000" stroke-linecap="square" stroke-width=".8" id="patch_5"/><path d="M43.781 7.2h357.12" fill="none" stroke="#000" stroke-linecap="square" stroke-width=".8" id="patch_6"/><g id="legend_1"><path d="M50.781 178.73H151.14q2 0 2-2v-72.947q0-2-2-2H50.781q-2 0-2 2v72.946q0 2 2 2z" fill="#fff" opacity=".8" stroke="#ccc" id="patch_7"/><path d="M52.781 109.881h20" fill="none" stroke="#1f77b4" stroke-linecap="square" stroke-width="1.5" id="line2d_30"/><g id="text_15"><defs><path d="M50.984-16.61v-6.968H-.984v6.969z" id="DejaVuSans-95"/></defs><g transform="matrix(.1 0 0 -.1 80.781 113.381)"><use xlink:href="#DejaVuSans-99"/><use x="54.98" xlink:href="#DejaVuSans-95"/></g></g><path d="M52.781 124.837h20" fill="none" stroke="#d62728" stroke-linecap="square" stroke-width="1.5" id="line2d_32"/><g transform="matrix(.1 0 0 -.1 80.781 128.337)" id="text_16"><use xlink:href="#DejaVuSans-99"/><use x="54.98" xlink:href="#DejaVuSans-111"/><use x="116.162" xlink:href="#DejaVuSans-108"/><use x="143.945" xlink:href="#DejaVuSans-117"/><use x="207.324" xlink:href="#DejaVuSans-109"/><use x="304.736" xlink:href="#DejaVuSans-110"/><use x="368.115" xlink:href="#DejaVuSans-95"/><use x="418.115" xlink:href="#DejaVuSans-115"/><use x="470.215" xlink:href="#DejaVuSans-116"/><use x="509.424" xlink:href="#DejaVuSans-97"/><use x="570.703" xlink:href="#DejaVuSans-99"/><use x="625.684" xlink:href="#DejaVuSans-107"/></g><path d="M52.781 139.793h20" fill="none" stroke="#9467bd" stroke-linecap="square" stroke-width="1.5" id="line2d_34"/><g transform="matrix(.1 0 0 -.1 80.781 143.293)" id="text_17"><use xlink:href="#DejaVuSans-99"/><use x="54.98" xlink:href="#DejaVuSans-111"/><use x="116.162" xlink:href="#DejaVuSans-110"/><use x="179.541" xlink:href="#DejaVuSans-99"/><use x="234.521" xlink:href="#DejaVuSans-97"/><use x="295.801" xlink:href="#DejaVuSans-116"/></g><path d="M52.781 154.472h20" fill="none" stroke="#ff7f0e" stroke-linecap="square" stroke-width="1.5" id="line2d_36"/><g transform="matrix(.1 0 0 -.1 80.781 157.972)" id="text_18"><use xlink:href="#DejaVuSans-115"/><use x="52.1" xlink:href="#DejaVuSans-116"/><use x="91.309" xlink:href="#DejaVuSans-97"/><use x="152.588" xlink:href="#DejaVuSans-99"/><use x="207.568" xlink:href="#DejaVuSans-107"/></g><path d="M52.781 169.15h20" fill="none" stroke="#2ca02c" stroke-linecap="square" stroke-width="1.5" id="line2d_38"/><g transform="matrix(.1 0 0 -.1 80.781 172.65)" id="text_19"><use xlink:href="#DejaVuSans-118"/><use x="59.18" xlink:href="#DejaVuSans-115"/><use x="111.279" xlink:href="#DejaVuSans-116"/><use x="150.488" xlink:href="#DejaVuSans-97"/><use x="211.768" xlink:href="#DejaVuSans-99"/><use x="266.748" xlink:href="#DejaVuSans-107"/></g></g></g></g><defs><clipPath id="p0660efde31"><path d="M43.781 7.2h357.12v266.112H43.781z"/></clipPath></defs></svg>