<svg height="491.222" viewBox="0 0 583.855 368.416" width="778.474" xmlns="http://www.w3.org/2000/svg" xmlns:xlink="http://www.w3.org/1999/xlink"><defs><style>*{stroke-linecap:butt;stroke-linejoin:round}</style></defs><g id="figure_1"><path d="M0 368.416h583.855V0H0z" style="fill:none" id="patch_1"/><g id="axes_1"><path d="M123.62 323.117h357.12V57.005H123.62z" style="fill:none" id="patch_2"/><g id="matplotlib.axis_1"><g id="xtick_1"><g id="line2d_1"><defs><path d="M0 0v3.5" id="m472178fa23" style="stroke:#969696;stroke-width:.4"/></defs><use style="fill:#969696;stroke:#969696;stroke-width:.4" x="123.621" xlink:href="#m472178fa23" y="323.117"/></g><g style="fill:#969696" transform="matrix(.14 0 0 -.14 111.3 340.755)" id="text_1"><defs><path d="M794 531h1031v3560L703 3866v575l1116 225h631V531h1031V0H794v531z" id="DejaVuSans-31" transform="scale(.01563)"/><path d="M2034 4250q-487 0-733-480-245-479-245-1442 0-959 245-1439 246-480 733-480 491 0 736 480 246 480 246 1439 0 963-246 1442-245 480-736 480zm0 500q785 0 1199-621 414-620 414-1801 0-1178-414-1799Q2819-91 2034-91q-784 0-1198 620-414 621-414 1799 0 1181 414 1801 414 621 1198 621z" id="DejaVuSans-30" transform="scale(.01563)"/></defs><use transform="translate(0 .766)" xlink:href="#DejaVuSans-31"/><use transform="translate(63.623 .766)" xlink:href="#DejaVuSans-30"/><use transform="matrix(.7 0 0 .7 128.203 39.047)" xlink:href="#DejaVuSans-30"/></g></g><g id="xtick_2"><use style="fill:#969696;stroke:#969696;stroke-width:.4" x="222.482" xlink:href="#m472178fa23" y="323.117" id="line2d_2"/><g style="fill:#969696" transform="matrix(.14 0 0 -.14 210.162 340.755)" id="text_2"><defs><path d="M1228 531h2203V0H469v531q359 372 979 998 621 627 780 809 303 340 423 576 121 236 121 464 0 372-261 606-261 235-680 235-297 0-627-103-329-103-704-313v638q381 153 712 231 332 78 607 78 725 0 1156-363 431-362 431-968 0-288-108-546-107-257-392-607-78-91-497-524-418-433-1181-1211z" id="DejaVuSans-32" transform="scale(.01563)"/></defs><use transform="translate(0 .766)" xlink:href="#DejaVuSans-31"/><use transform="translate(63.623 .766)" xlink:href="#DejaVuSans-30"/><use transform="matrix(.7 0 0 .7 128.203 39.047)" xlink:href="#DejaVuSans-32"/></g></g><g id="xtick_3"><use style="fill:#969696;stroke:#969696;stroke-width:.4" x="321.342" xlink:href="#m472178fa23" y="323.117" id="line2d_3"/><g style="fill:#969696" transform="matrix(.14 0 0 -.14 309.022 340.755)" id="text_3"><defs><path d="M2419 4116 825 1625h1594v2491zm-166 550h794V1625h666v-525h-666V0h-628v1100H313v609l1940 2957z" id="DejaVuSans-34" transform="scale(.01563)"/></defs><use transform="translate(0 .684)" xlink:href="#DejaVuSans-31"/><use transform="translate(63.623 .684)" xlink:href="#DejaVuSans-30"/><use transform="matrix(.7 0 0 .7 128.203 38.966)" xlink:href="#DejaVuSans-34"/></g></g><g id="xtick_4"><use style="fill:#969696;stroke:#969696;stroke-width:.4" x="420.203" xlink:href="#m472178fa23" y="323.117" id="line2d_4"/><g style="fill:#969696" transform="matrix(.14 0 0 -.14 407.883 340.755)" id="text_4"><defs><path d="M2113 2584q-425 0-674-291-248-290-248-796 0-503 248-796 249-292 674-292t673 292q248 293 248 796 0 506-248 796-248 291-673 291zm1253 1979v-575q-238 112-480 171-242 60-480 60-625 0-955-422-329-422-376-1275 184 272 462 417 279 145 613 145 703 0 1111-427 408-426 408-1160 0-719-425-1154Q2819-91 2113-91q-810 0-1238 620-428 621-428 1799 0 1106 525 1764t1409 658q238 0 480-47t505-140z" id="DejaVuSans-36" transform="scale(.01563)"/></defs><use transform="translate(0 .766)" xlink:href="#DejaVuSans-31"/><use transform="translate(63.623 .766)" xlink:href="#DejaVuSans-30"/><use transform="matrix(.7 0 0 .7 128.203 39.047)" xlink:href="#DejaVuSans-36"/></g></g><g style="fill:#969696" transform="matrix(.14 0 0 -.14 281.74 358.305)" id="text_5"><defs><path d="M603 4863h575V0H603v4863z" id="DejaVuSans-6c" transform="scale(.01563)"/><path d="M3597 1894v-281H953q38-594 358-905t892-311q331 0 642 81t618 244V178Q3153 47 2828-22t-659-69q-838 0-1327 487-489 488-489 1320 0 859 464 1363 464 505 1252 505 706 0 1117-455 411-454 411-1235zm-575 169q-6 471-264 752-258 282-683 282-481 0-770-272t-333-766l2050 4z" id="DejaVuSans-65" transform="scale(.01563)"/><path d="M3513 2113V0h-575v2094q0 497-194 743-194 247-581 247-466 0-735-297-269-296-269-809V0H581v3500h578v-544q207 316 486 472 280 156 646 156 603 0 912-373 310-373 310-1098z" id="DejaVuSans-6e" transform="scale(.01563)"/><path d="M1984 4856q-418-718-622-1422-203-703-203-1425 0-721 205-1429t620-1424h-500Q1016-109 783 600T550 2009q0 697 231 1403 232 707 703 1444h500z" id="DejaVuSans-28" transform="scale(.01563)"/><path d="M2194 1759q-697 0-966-159t-269-544q0-306 202-486 202-179 548-179 479 0 768 339t289 901v128h-572zm1147 238V0h-575v531q-197-318-491-470T1556-91q-537 0-855 302-317 302-317 808 0 590 395 890 396 300 1180 300h807v57q0 397-261 614t-733 217q-300 0-585-72-284-72-546-216v532q315 122 612 182 297 61 578 61 760 0 1135-394 375-393 375-1193z" id="DejaVuSans-61" transform="scale(.01563)"/><path d="M513 4856h500q468-737 701-1444 233-706 233-1403 0-700-233-1409T1013-844H513q415 716 620 1424t205 1429q0 722-205 1425-205 704-620 1422z" id="DejaVuSans-29" transform="scale(.01563)"/></defs><use xlink:href="#DejaVuSans-6c"/><use x="27.783" xlink:href="#DejaVuSans-65"/><use x="89.307" xlink:href="#DejaVuSans-6e"/><use x="152.686" xlink:href="#DejaVuSans-28"/><use x="191.699" xlink:href="#DejaVuSans-61"/><use x="252.979" xlink:href="#DejaVuSans-29"/></g></g><g id="matplotlib.axis_2"><g id="ytick_1"><path clip-path="url(#p78eda60ae9)" d="M123.62 323.117h357.12" style="fill:none;stroke:#969696;stroke-linecap:square;stroke-width:.3" id="line2d_5"/><g id="line2d_6"><defs><path d="M0 0h-3.5" id="m3e4def7a0a" style="stroke:#969696;stroke-width:.3"/></defs><use style="fill:#969696;stroke:#969696;stroke-width:.3" x="123.621" xlink:href="#m3e4def7a0a" y="323.117"/></g><g style="fill:#969696" transform="matrix(.14 0 0 -.14 94.357 328.436)" id="text_6"><defs><path d="M684 794h660V0H684v794z" id="DejaVuSans-2e" transform="scale(.01563)"/></defs><use xlink:href="#DejaVuSans-30"/><use x="63.623" xlink:href="#DejaVuSans-2e"/><use x="95.41" xlink:href="#DejaVuSans-30"/></g></g><g id="ytick_2"><path clip-path="url(#p78eda60ae9)" d="M123.62 290.587h357.12" style="fill:none;stroke:#969696;stroke-linecap:square;stroke-width:.3" id="line2d_7"/><use style="fill:#969696;stroke:#969696;stroke-width:.3" x="123.621" xlink:href="#m3e4def7a0a" y="290.587" id="line2d_8"/><g style="fill:#969696" transform="matrix(.14 0 0 -.14 94.357 295.905)" id="text_7"><defs><path d="M691 4666h2478v-532H1269V2991q137 47 274 70 138 23 276 23 781 0 1237-428 457-428 457-1159 0-753-469-1171Q2575-91 1722-91q-294 0-599 50Q819 9 494 109v635q281-153 581-228t634-75q541 0 856 284 316 284 316 772 0 487-316 771-315 285-856 285-253 0-505-56-251-56-513-175v2344z" id="DejaVuSans-35" transform="scale(.01563)"/></defs><use xlink:href="#DejaVuSans-30"/><use x="63.623" xlink:href="#DejaVuSans-2e"/><use x="95.41" xlink:href="#DejaVuSans-35"/></g></g><g id="ytick_3"><path clip-path="url(#p78eda60ae9)" d="M123.62 258.056h357.12" style="fill:none;stroke:#969696;stroke-linecap:square;stroke-width:.3" id="line2d_9"/><use style="fill:#969696;stroke:#969696;stroke-width:.3" x="123.621" xlink:href="#m3e4def7a0a" y="258.056" id="line2d_10"/><g style="fill:#969696" transform="matrix(.14 0 0 -.14 94.357 263.375)" id="text_8"><use xlink:href="#DejaVuSans-31"/><use x="63.623" xlink:href="#DejaVuSans-2e"/><use x="95.41" xlink:href="#DejaVuSans-30"/></g></g><g id="ytick_4"><path clip-path="url(#p78eda60ae9)" d="M123.62 225.525h357.12" style="fill:none;stroke:#969696;stroke-linecap:square;stroke-width:.3" id="line2d_11"/><use style="fill:#969696;stroke:#969696;stroke-width:.3" x="123.621" xlink:href="#m3e4def7a0a" y="225.525" id="line2d_12"/><g style="fill:#969696" transform="matrix(.14 0 0 -.14 94.357 230.844)" id="text_9"><use xlink:href="#DejaVuSans-31"/><use x="63.623" xlink:href="#DejaVuSans-2e"/><use x="95.41" xlink:href="#DejaVuSans-35"/></g></g><g id="ytick_5"><path clip-path="url(#p78eda60ae9)" d="M123.62 192.994h357.12" style="fill:none;stroke:#969696;stroke-linecap:square;stroke-width:.3" id="line2d_13"/><use style="fill:#969696;stroke:#969696;stroke-width:.3" x="123.621" xlink:href="#m3e4def7a0a" y="192.994" id="line2d_14"/><g style="fill:#969696" transform="matrix(.14 0 0 -.14 94.357 198.313)" id="text_10"><use xlink:href="#DejaVuSans-32"/><use x="63.623" xlink:href="#DejaVuSans-2e"/><use x="95.41" xlink:href="#DejaVuSans-30"/></g></g><g id="ytick_6"><path clip-path="url(#p78eda60ae9)" d="M123.62 160.463h357.12" style="fill:none;stroke:#969696;stroke-linecap:square;stroke-width:.3" id="line2d_15"/><use style="fill:#969696;stroke:#969696;stroke-width:.3" x="123.621" xlink:href="#m3e4def7a0a" y="160.463" id="line2d_16"/><g style="fill:#969696" transform="matrix(.14 0 0 -.14 94.357 165.782)" id="text_11"><use xlink:href="#DejaVuSans-32"/><use x="63.623" xlink:href="#DejaVuSans-2e"/><use x="95.41" xlink:href="#DejaVuSans-35"/></g></g><g id="ytick_7"><path clip-path="url(#p78eda60ae9)" d="M123.62 127.932h357.12" style="fill:none;stroke:#969696;stroke-linecap:square;stroke-width:.3" id="line2d_17"/><use style="fill:#969696;stroke:#969696;stroke-width:.3" x="123.621" xlink:href="#m3e4def7a0a" y="127.932" id="line2d_18"/><g style="fill:#969696" transform="matrix(.14 0 0 -.14 94.357 133.251)" id="text_12"><defs><path d="M2597 2516q453-97 707-404 255-306 255-756 0-690-475-1069Q2609-91 1734-91q-293 0-604 58T488 141v609q262-153 574-231 313-78 654-78 593 0 904 234t311 681q0 413-289 645-289 233-804 233h-544v519h569q465 0 712 186t247 536q0 359-255 551-254 193-729 193-260 0-557-57-297-56-653-174v562q360 100 674 150t592 50q719 0 1137-327 419-326 419-882 0-388-222-655t-631-370z" id="DejaVuSans-33" transform="scale(.01563)"/></defs><use xlink:href="#DejaVuSans-33"/><use x="63.623" xlink:href="#DejaVuSans-2e"/><use x="95.41" xlink:href="#DejaVuSans-30"/></g></g><g id="ytick_8"><path clip-path="url(#p78eda60ae9)" d="M123.62 95.402h357.12" style="fill:none;stroke:#969696;stroke-linecap:square;stroke-width:.3" id="line2d_19"/><use style="fill:#969696;stroke:#969696;stroke-width:.3" x="123.621" xlink:href="#m3e4def7a0a" y="95.402" id="line2d_20"/><g style="fill:#969696" transform="matrix(.14 0 0 -.14 94.357 100.72)" id="text_13"><use xlink:href="#DejaVuSans-33"/><use x="63.623" xlink:href="#DejaVuSans-2e"/><use x="95.41" xlink:href="#DejaVuSans-35"/></g></g><g id="ytick_9"><path clip-path="url(#p78eda60ae9)" d="M123.62 62.87h357.12" style="fill:none;stroke:#969696;stroke-linecap:square;stroke-width:.3" id="line2d_21"/><use style="fill:#969696;stroke:#969696;stroke-width:.3" x="123.621" xlink:href="#m3e4def7a0a" y="62.871" id="line2d_22"/><g style="fill:#969696" transform="matrix(.14 0 0 -.14 94.357 68.19)" id="text_14"><use xlink:href="#DejaVuSans-34"/><use x="63.623" xlink:href="#DejaVuSans-2e"/><use x="95.41" xlink:href="#DejaVuSans-30"/></g></g><g id="text_15"><g style="fill:#969696" transform="matrix(.14 0 0 -.14 61.65 17.838)"><defs><path d="M2841 2188q203-69 395-294t386-619L4263 0h-679l-596 1197q-232 469-449 622t-592 153h-688V0H628v4666h1425q800 0 1194-335 394-334 394-1009 0-441-205-732-205-290-595-402zM1259 4147V2491h794q456 0 689 211t233 620q0 409-233 617t-689 208h-794z" id="DejaVuSans-52" transform="scale(.01563)"/><path d="M544 1381v2119h575V1403q0-497 193-746 194-248 582-248 465 0 735 297 271 297 271 810v1984h575V0h-575v538q-209-319-486-474-276-155-642-155-603 0-916 375-312 375-312 1097zm1447 2203z" id="DejaVuSans-75" transform="scale(.01563)"/><path d="M1172 4494v-994h1184v-447H1172V1153q0-428 117-550t477-122h590V0h-590q-666 0-919 248-253 249-253 905v1900H172v447h422v994h578z" id="DejaVuSans-74" transform="scale(.01563)"/><path d="M603 3500h575V0H603v3500zm0 1363h575v-729H603v729z" id="DejaVuSans-69" transform="scale(.01563)"/><path d="M3328 2828q216 388 516 572t706 184q547 0 844-383 297-382 297-1088V0h-578v2094q0 503-179 746-178 244-543 244-447 0-707-297-259-296-259-809V0h-578v2094q0 506-178 748t-550 242q-441 0-701-298-259-298-259-808V0H581v3500h578v-544q197 322 472 475t653 153q382 0 649-194 267-193 395-562z" id="DejaVuSans-6d" transform="scale(.01563)"/></defs><use xlink:href="#DejaVuSans-52"/><use x="64.982" xlink:href="#DejaVuSans-75"/><use x="128.361" xlink:href="#DejaVuSans-6e"/><use x="191.74" xlink:href="#DejaVuSans-74"/><use x="230.949" xlink:href="#DejaVuSans-69"/><use x="258.732" xlink:href="#DejaVuSans-6d"/><use x="356.145" xlink:href="#DejaVuSans-65"/></g><g style="fill:#969696" transform="matrix(.14 0 0 -.14 7.2 33.515)"><defs><path d="M2631 2963q-97 56-211 82-114 27-251 27-488 0-749-317t-261-911V0H581v3500h578v-544q182 319 472 473 291 155 707 155 59 0 131-8 72-7 159-23l3-590z" id="DejaVuSans-72" transform="scale(.01563)"/><path d="M191 3500h609L1894 563l1094 2937h609L2284 0h-781L191 3500z" id="DejaVuSans-76" transform="scale(.01563)"/><path d="M1959 3097q-462 0-731-361t-269-989q0-628 267-989 268-361 733-361 460 0 728 362 269 363 269 988 0 622-269 986-268 364-728 364zm0 487q750 0 1178-488 429-487 429-1349 0-859-429-1349Q2709-91 1959-91q-753 0-1180 489-426 490-426 1349 0 862 426 1349 427 488 1180 488z" id="DejaVuSans-6f" transform="scale(.01563)"/><path d="M2834 3397v-544q-243 125-506 187-262 63-544 63-428 0-642-131t-214-394q0-200 153-314t616-217l197-44q612-131 870-370t258-667q0-488-386-773Q2250-91 1575-91q-281 0-586 55T347 128v594q319-166 628-249 309-82 613-82 406 0 624 139 219 139 219 392 0 234-158 359-157 125-692 241l-200 47q-534 112-772 345-237 233-237 639 0 494 350 762 350 269 994 269 318 0 599-47 282-46 519-140z" id="DejaVuSans-73" transform="scale(.01563)"/><path d="M3122 3366v-538q-244 135-489 202t-495 67q-560 0-870-355-309-354-309-995t309-996q310-354 870-354 250 0 495 67t489 202V134Q2881 22 2623-34q-257-57-548-57-791 0-1257 497-465 497-465 1341 0 856 470 1346 471 491 1290 491 265 0 518-55 253-54 491-163z" id="DejaVuSans-63" transform="scale(.01563)"/><path d="M581 4863h578V1991l1716 1509h734L1753 1863 3688 0h-750L1159 1709V0H581v4863z" id="DejaVuSans-6b" transform="scale(.01563)"/></defs><use xlink:href="#DejaVuSans-72"/><use x="38.863" xlink:href="#DejaVuSans-65"/><use x="100.387" xlink:href="#DejaVuSans-6c"/><use x="128.17" xlink:href="#DejaVuSans-61"/><use x="189.449" xlink:href="#DejaVuSans-74"/><use x="228.658" xlink:href="#DejaVuSans-69"/><use x="256.441" xlink:href="#DejaVuSans-76"/><use x="315.621" xlink:href="#DejaVuSans-65"/><use x="377.145" xlink:href="#DejaVuSans-20"/><use x="408.932" xlink:href="#DejaVuSans-74"/><use x="448.141" xlink:href="#DejaVuSans-6f"/><use x="509.322" xlink:href="#DejaVuSans-20"/><use x="541.109" xlink:href="#DejaVuSans-73"/><use x="593.209" xlink:href="#DejaVuSans-74"/><use x="632.418" xlink:href="#DejaVuSans-61"/><use x="693.697" xlink:href="#DejaVuSans-63"/><use x="748.678" xlink:href="#DejaVuSans-6b"/></g></g></g><path clip-path="url(#p78eda60ae9)" d="m123.62 99.751 14.88 3.47 14.88-2.392 14.88.218 14.88 2.022 14.88-3.04 14.88 8.715 14.88.776 14.88 3.047 14.88 1.7 14.88 3.797 14.88 1.543 14.88 11.461 14.88 11.29 14.88 6.605 14.88 22.287 14.88 18.537 14.88-16.12 14.88-54.988 14.88-61.674 14.88 122.47 14.88 63.884 14.88 4.122 14.88 68.28 14.88-29.2" style="fill:none;stroke:#1f77b4;stroke-linecap:square;stroke-width:1.5" id="line2d_23"/><path clip-path="url(#p78eda60ae9)" d="M123.62 258.056H480.74" style="fill:none;stroke:#ff7f0e;stroke-linecap:square;stroke-width:1.5" id="line2d_24"/><path clip-path="url(#p78eda60ae9)" d="m123.62 268.98 14.88.593 14.88-.695 14.88-.825 14.88.99 14.88-.646 14.88 2.028 14.88-1.452 14.88.862 14.88-.02 14.88-.485 14.88-3.934 14.88 1.934 14.88-1.075 14.88-2.548 14.88-3.853 14.88 3.039 14.88-4 14.88-.397 14.88 2.28 14.88-2.567 14.88 5.382 14.88-3 14.88-4.872 14.88.95" style="fill:none;stroke:#2ca02c;stroke-linecap:square;stroke-width:1.5" id="line2d_25"/><path clip-path="url(#p78eda60ae9)" d="m123.62 277.917 14.88.76 14.88-.9 14.88.715 14.88-.565 14.88-.701 14.88.998 14.88-1.328 14.88-.652 14.88-1.362 14.88-4.7 14.88-7.533 14.88-10.35 14.88-16.963 14.88-22.245 14.88-6.908 14.88-1.108 14.88-16.494 14.88-60.123 14.88-65.275 14.88 116.01 14.88 57.064 14.88-1.195 14.88 24.815 14.88-1.827" style="fill:none;stroke:#d62728;stroke-linecap:square;stroke-width:1.5" id="line2d_26"/><path clip-path="url(#p78eda60ae9)" d="m123.62 290.39 14.88.682 14.88.067 14.88-.332 14.88-.244 14.88.063 14.88.285 14.88-1.593 14.88-.517 14.88-2.993 14.88-3.988 14.88-8.961 14.88-10.821 14.88-21.112 14.88-22.856 14.88-7.425 14.88-3.605 14.88-16.138 14.88-61.921 14.88-65.654 14.88 115.468 14.88 62.483 14.88-1.75 14.88 18.865 14.88-6.825" style="fill:none;stroke:#9467bd;stroke-linecap:square;stroke-width:1.5" id="line2d_27"/><g style="fill:#1f77b4" transform="matrix(.14 0 0 -.14 480.955 293.654)" id="text_16"><defs><path d="M3263-1063v-446H-63v446h3326z" id="DejaVuSans-5f" transform="scale(.01563)"/></defs><use xlink:href="#DejaVuSans-63"/><use x="54.98" xlink:href="#DejaVuSans-5f"/></g><g style="fill:#ff7f0e" transform="matrix(.14 0 0 -.14 480.955 280.044)" id="text_17"><use xlink:href="#DejaVuSans-73"/><use x="52.1" xlink:href="#DejaVuSans-74"/><use x="91.309" xlink:href="#DejaVuSans-61"/><use x="152.588" xlink:href="#DejaVuSans-63"/><use x="207.568" xlink:href="#DejaVuSans-6b"/></g><g style="fill:#2ca02c" transform="matrix(.14 0 0 -.14 480.955 252.044)" id="text_18"><use xlink:href="#DejaVuSans-76"/><use x="59.18" xlink:href="#DejaVuSans-73"/><use x="111.279" xlink:href="#DejaVuSans-74"/><use x="150.488" xlink:href="#DejaVuSans-61"/><use x="211.768" xlink:href="#DejaVuSans-63"/><use x="266.748" xlink:href="#DejaVuSans-6b"/></g><g style="fill:#d62728" transform="matrix(.14 0 0 -.14 480.955 265.85)" id="text_19"><use xlink:href="#DejaVuSans-63"/><use x="54.98" xlink:href="#DejaVuSans-6f"/><use x="116.162" xlink:href="#DejaVuSans-6c"/><use x="143.945" xlink:href="#DejaVuSans-75"/><use x="207.324" xlink:href="#DejaVuSans-6d"/><use x="304.736" xlink:href="#DejaVuSans-6e"/><use x="368.115" xlink:href="#DejaVuSans-5f"/><use x="418.115" xlink:href="#DejaVuSans-73"/><use x="470.215" xlink:href="#DejaVuSans-74"/><use x="509.424" xlink:href="#DejaVuSans-61"/><use x="570.703" xlink:href="#DejaVuSans-63"/><use x="625.684" xlink:href="#DejaVuSans-6b"/></g><g style="fill:#9467bd" transform="matrix(.14 0 0 -.14 480.955 238.044)" id="text_20"><use xlink:href="#DejaVuSans-63"/><use x="54.98" xlink:href="#DejaVuSans-6f"/><use x="116.162" xlink:href="#DejaVuSans-6e"/><use x="179.541" xlink:href="#DejaVuSans-63"/><use x="234.521" xlink:href="#DejaVuSans-61"/><use x="295.801" xlink:href="#DejaVuSans-74"/></g></g></g><defs><clipPath id="p78eda60ae9"><path d="M123.621 57.005h357.12v266.112h-357.12z"/></clipPath></defs></svg>